<svg xmlns="http://www.w3.org/2000/svg" xmlns:xlink="http://www.w3.org/1999/xlink" version="1.1" width="596" height="211"><defs/><g><g transform="translate(-110,-254) scale(1,1)"><rect fill="#ffffff" stroke="none" x="120" y="264" width="576" height="191"/></g><g transform="translate(-110,-254) scale(1,1)"><path fill="none" stroke="#000000" d="M 120 264 L 696 264 L 696 455 L 120 455 L 120 264 Z Z" stroke-miterlimit="10"/></g><g transform="translate(-110,-254) scale(1,1)"><rect fill="#C0C0C0" stroke="none" x="183" y="341" width="32" height="15" opacity="0.2"/></g><g transform="translate(-110,-254) scale(1,1)"><rect fill="#C0C0C0" stroke="none" x="183" y="355" width="80" height="34" opacity="0.2"/></g><g transform="translate(-110,-254) scale(1,1)"><rect fill="#ebffd8" stroke="none" x="176" y="349" width="80" height="33"/></g><g transform="translate(-110,-254) scale(1,1)"><path fill="none" stroke="#000000" d="M 176 349 L 256 349 L 256 382 L 176 382 L 176 349 Z Z" stroke-miterlimit="10"/></g><g transform="translate(-110,-254) scale(1,1)"><rect fill="#ebffd8" stroke="none" x="176" y="334" width="32" height="15"/></g><g transform="translate(-110,-254) scale(1,1)"><path fill="none" stroke="#000000" d="M 176 334 L 208 334 L 208 349 L 176 349 L 176 334 Z Z" stroke-miterlimit="10"/></g><g transform="translate(-110,-254) scale(1,1)"><rect fill="#ebffd8" stroke="none" x="176" y="348" width="80" height="34"/></g><g transform="translate(-110,-254) scale(1,1)"><path fill="none" stroke="#000000" d="M 176 348 L 256 348 L 256 382 L 176 382 L 176 348 Z Z" stroke-miterlimit="10"/></g><g transform="translate(-110,-254) scale(1,1)"><g><path fill="none" stroke="none"/><text fill="#000000" stroke="none" font-family="Arial" font-size="13px" font-style="normal" font-weight="bold" text-decoration="none" x="210.2236328125" y="367">ui</text></g></g><g transform="translate(-110,-254) scale(1,1)"><rect fill="#C0C0C0" stroke="none" x="375" y="341" width="32" height="15" opacity="0.2"/></g><g transform="translate(-110,-254) scale(1,1)"><rect fill="#C0C0C0" stroke="none" x="375" y="355" width="80" height="34" opacity="0.2"/></g><g transform="translate(-110,-254) scale(1,1)"><rect fill="#d8f2ff" stroke="none" x="368" y="349" width="80" height="33"/></g><g transform="translate(-110,-254) scale(1,1)"><path fill="none" stroke="#000000" d="M 368 349 L 448 349 L 448 382 L 368 382 L 368 349 Z Z" stroke-miterlimit="10"/></g><g transform="translate(-110,-254) scale(1,1)"><rect fill="#d8f2ff" stroke="none" x="368" y="334" width="32" height="15"/></g><g transform="translate(-110,-254) scale(1,1)"><path fill="none" stroke="#000000" d="M 368 334 L 400 334 L 400 349 L 368 349 L 368 334 Z Z" stroke-miterlimit="10"/></g><g transform="translate(-110,-254) scale(1,1)"><rect fill="#d8f2ff" stroke="none" x="368" y="348" width="80" height="34"/></g><g transform="translate(-110,-254) scale(1,1)"><path fill="none" stroke="#000000" d="M 368 348 L 448 348 L 448 382 L 368 382 L 368 348 Z Z" stroke-miterlimit="10"/></g><g transform="translate(-110,-254) scale(1,1)"><g><path fill="none" stroke="none"/><text fill="#000000" stroke="none" font-family="Arial" font-size="13px" font-style="normal" font-weight="bold" text-decoration="none" x="388.858642578125" y="367">model</text></g></g><g transform="translate(-110,-254) scale(1,1)"><rect fill="#C0C0C0" stroke="none" x="567" y="341" width="32" height="15" opacity="0.2"/></g><g transform="translate(-110,-254) scale(1,1)"><rect fill="#C0C0C0" stroke="none" x="567" y="355" width="80" height="34" opacity="0.2"/></g><g transform="translate(-110,-254) scale(1,1)"><rect fill="#ffd8d8" stroke="none" x="560" y="349" width="80" height="33"/></g><g transform="translate(-110,-254) scale(1,1)"><path fill="none" stroke="#000000" d="M 560 349 L 640 349 L 640 382 L 560 382 L 560 349 Z Z" stroke-miterlimit="10"/></g><g transform="translate(-110,-254) scale(1,1)"><rect fill="#ffd8d8" stroke="none" x="560" y="334" width="32" height="15"/></g><g transform="translate(-110,-254) scale(1,1)"><path fill="none" stroke="#000000" d="M 560 334 L 592 334 L 592 349 L 560 349 L 560 334 Z Z" stroke-miterlimit="10"/></g><g transform="translate(-110,-254) scale(1,1)"><rect fill="#ffd8d8" stroke="none" x="560" y="348" width="80" height="34"/></g><g transform="translate(-110,-254) scale(1,1)"><path fill="none" stroke="#000000" d="M 560 348 L 640 348 L 640 382 L 560 382 L 560 348 Z Z" stroke-miterlimit="10"/></g><g transform="translate(-110,-254) scale(1,1)"><g><path fill="none" stroke="none"/><text fill="#000000" stroke="none" font-family="Arial" font-size="13px" font-style="normal" font-weight="bold" text-decoration="none" x="572.5400390625" y="367">FireBase</text></g></g><g transform="translate(-110,-254) scale(1,1)"><path fill="none" stroke="#000000" d="M 256 368 L 368 368" stroke-miterlimit="10" stroke-dasharray="3"/></g><g transform="translate(-110,-254) scale(1,1)"><path fill="none" stroke="#000000" d="M 357.83732514237585 372.209517756016 L 368 368 L 357.83732514237585 363.790482243984" stroke-miterlimit="10"/></g><g transform="translate(-110,-254) scale(1,1)"><path fill="none" stroke="#000000" d="M 448 368 L 560 368" stroke-miterlimit="10" stroke-dasharray="3"/></g><g transform="translate(-110,-254) scale(1,1)"><path fill="none" stroke="#000000" d="M 549.8373251423759 372.209517756016 L 560 368 L 549.8373251423758 363.790482243984" stroke-miterlimit="10"/></g></g></svg>