<svg xmlns="http://www.w3.org/2000/svg" xmlns:xlink="http://www.w3.org/1999/xlink" version="1.1" width="884" height="700"><defs/><g><g transform="translate(-318,-46) scale(1,1)"><path fill="none" stroke="#000000" d="M 328 96 L 1192 96 L 1192 336 L 328 336 L 328 96" stroke-miterlimit="10"/></g><g transform="translate(-318,-46) scale(1,1)"><path fill="#d1ffa3" stroke="none" d="M 328 96 L 328 118 L 449.4853515625 118 L 460.4853515625 107 L 460.4853515625 96 L 328 96"/></g><g transform="translate(-318,-46) scale(1,1)"><path fill="none" stroke="#000000" d="M 328 96 L 328 118 L 449.4853515625 118 L 460.4853515625 107 L 460.4853515625 96 L 328 96 L 328 96" stroke-miterlimit="10"/></g><g transform="translate(-318,-46) scale(1,1)"><g><path fill="none" stroke="none"/><text fill="#000000" stroke="none" font-family="Arial" font-size="13px" font-style="normal" font-weight="normal" text-decoration="none" x="339" y="112">Unregistered User</text></g></g><g transform="translate(-318,-46) scale(1,1)"><g><path fill="none" stroke="none"/><text fill="#000000" stroke="none" font-family="Arial" font-size="13px" font-style="normal" font-weight="bold" text-decoration="none" x="333" y="107"/></g></g><g transform="translate(-318,-46) scale(1,1)"><path fill="none" stroke="#000000" d="M 328 336 L 1192 336 L 1192 736 L 328 736 L 328 336" stroke-miterlimit="10"/></g><g transform="translate(-318,-46) scale(1,1)"><path fill="#ffa3ff" stroke="none" d="M 328 336 L 328 358 L 437.92626953125 358 L 448.92626953125 347 L 448.92626953125 336 L 328 336"/></g><g transform="translate(-318,-46) scale(1,1)"><path fill="none" stroke="#000000" d="M 328 336 L 328 358 L 437.92626953125 358 L 448.92626953125 347 L 448.92626953125 336 L 328 336 L 328 336" stroke-miterlimit="10"/></g><g transform="translate(-318,-46) scale(1,1)"><g><path fill="none" stroke="none"/><text fill="#000000" stroke="none" font-family="Arial" font-size="13px" font-style="normal" font-weight="normal" text-decoration="none" x="339" y="352">Registered User</text></g></g><g transform="translate(-318,-46) scale(1,1)"><g><path fill="none" stroke="none"/><text fill="#000000" stroke="none" font-family="Arial" font-size="13px" font-style="normal" font-weight="bold" text-decoration="none" x="333" y="347"/></g></g><g transform="translate(-318,-46) scale(1,1)"><path fill="#C0C0C0" stroke="none" d="M 727 72.5 C 727 67.2532944 731.2532944 63 736.5 63 C 741.7467056 63 746 67.2532944 746 72.5 C 746 77.7467056 741.7467056 82 736.5 82 C 731.2532944 82 727 77.7467056 727 72.5 Z" opacity="0.2"/></g><g transform="translate(-318,-46) scale(1,1)"><path fill="#000000" stroke="none" d="M 720 65.5 C 720 60.2532944 724.2532944 56 729.5 56 C 734.7467056 56 739 60.2532944 739 65.5 C 739 70.7467056 734.7467056 75 729.5 75 C 724.2532944 75 720 70.7467056 720 65.5 Z"/></g><g transform="translate(-318,-46) scale(1,1)"><path fill="#C0C0C0" stroke="none" d="M 681 127 L 793.5634765625 127 Q 803.5634765625 127 803.5634765625 137 L 803.5634765625 157 Q 803.5634765625 167 793.5634765625 167 L 681 167 Q 671 167 671 157 L 671 137 Q 671 127 681 127 Z" opacity="0.2"/></g><g transform="translate(-318,-46) scale(1,1)"><path fill="#ebffd8" stroke="none" d="M 674 120 L 786.5634765625 120 Q 796.5634765625 120 796.5634765625 130 L 796.5634765625 150 Q 796.5634765625 160 786.5634765625 160 L 674 160 Q 664 160 664 150 L 664 130 Q 664 120 674 120 Z"/></g><g transform="translate(-318,-46) scale(1,1)"><path fill="none" stroke="#000000" d="M 674 120 L 786.5634765625 120 Q 796.5634765625 120 796.5634765625 130 L 796.5634765625 150 Q 796.5634765625 160 786.5634765625 160 L 674 160 Q 664 160 664 150 L 664 130 Q 664 120 674 120 Z" stroke-miterlimit="10"/></g><g transform="translate(-318,-46) scale(1,1)"><g><path fill="none" stroke="none"/><text fill="#000000" stroke="none" font-family="Arial" font-size="13px" font-style="normal" font-weight="bold" text-decoration="none" x="715.475830078125" y="138">Main</text></g></g><g transform="translate(-318,-46) scale(1,1)"><path fill="#C0C0C0" stroke="none" d="M 793 231 L 905.5634765625 231 Q 915.5634765625 231 915.5634765625 241 L 915.5634765625 261 Q 915.5634765625 271 905.5634765625 271 L 793 271 Q 783 271 783 261 L 783 241 Q 783 231 793 231 Z" opacity="0.2"/></g><g transform="translate(-318,-46) scale(1,1)"><path fill="#ebffd8" stroke="none" d="M 786 224 L 898.5634765625 224 Q 908.5634765625 224 908.5634765625 234 L 908.5634765625 254 Q 908.5634765625 264 898.5634765625 264 L 786 264 Q 776 264 776 254 L 776 234 Q 776 224 786 224 Z"/></g><g transform="translate(-318,-46) scale(1,1)"><path fill="none" stroke="#000000" d="M 786 224 L 898.5634765625 224 Q 908.5634765625 224 908.5634765625 234 L 908.5634765625 254 Q 908.5634765625 264 898.5634765625 264 L 786 264 Q 776 264 776 254 L 776 234 Q 776 224 786 224 Z" stroke-miterlimit="10"/></g><g transform="translate(-318,-46) scale(1,1)"><g><path fill="none" stroke="none"/><text fill="#000000" stroke="none" font-family="Arial" font-size="13px" font-style="normal" font-weight="bold" text-decoration="none" x="822.7880859375" y="242">Log In</text></g></g><g transform="translate(-318,-46) scale(1,1)"><path fill="#C0C0C0" stroke="none" d="M 569 231 L 681.5634765625 231 Q 691.5634765625 231 691.5634765625 241 L 691.5634765625 261 Q 691.5634765625 271 681.5634765625 271 L 569 271 Q 559 271 559 261 L 559 241 Q 559 231 569 231 Z" opacity="0.2"/></g><g transform="translate(-318,-46) scale(1,1)"><path fill="#ebffd8" stroke="none" d="M 562 224 L 674.5634765625 224 Q 684.5634765625 224 684.5634765625 234 L 684.5634765625 254 Q 684.5634765625 264 674.5634765625 264 L 562 264 Q 552 264 552 254 L 552 234 Q 552 224 562 224 Z"/></g><g transform="translate(-318,-46) scale(1,1)"><path fill="none" stroke="#000000" d="M 562 224 L 674.5634765625 224 Q 684.5634765625 224 684.5634765625 234 L 684.5634765625 254 Q 684.5634765625 264 674.5634765625 264 L 562 264 Q 552 264 552 254 L 552 234 Q 552 224 562 224 Z" stroke-miterlimit="10"/></g><g transform="translate(-318,-46) scale(1,1)"><g><path fill="none" stroke="none"/><text fill="#000000" stroke="none" font-family="Arial" font-size="13px" font-style="normal" font-weight="bold" text-decoration="none" x="593.72900390625" y="242">Sign Up</text></g></g><g transform="translate(-318,-46) scale(1,1)"><path fill="#C0C0C0" stroke="none" d="M 969 231 L 1081.5634765625 231 Q 1091.5634765625 231 1091.5634765625 241 L 1091.5634765625 261 Q 1091.5634765625 271 1081.5634765625 271 L 969 271 Q 959 271 959 261 L 959 241 Q 959 231 969 231 Z" opacity="0.2"/></g><g transform="translate(-318,-46) scale(1,1)"><path fill="#ebffd8" stroke="none" d="M 962 224 L 1074.5634765625 224 Q 1084.5634765625 224 1084.5634765625 234 L 1084.5634765625 254 Q 1084.5634765625 264 1074.5634765625 264 L 962 264 Q 952 264 952 254 L 952 234 Q 952 224 962 224 Z"/></g><g transform="translate(-318,-46) scale(1,1)"><path fill="none" stroke="#000000" d="M 962 224 L 1074.5634765625 224 Q 1084.5634765625 224 1084.5634765625 234 L 1084.5634765625 254 Q 1084.5634765625 264 1074.5634765625 264 L 962 264 Q 952 264 952 254 L 952 234 Q 952 224 962 224 Z" stroke-miterlimit="10"/></g><g transform="translate(-318,-46) scale(1,1)"><g><path fill="none" stroke="none"/><text fill="#000000" stroke="none" font-family="Arial" font-size="13px" font-style="normal" font-weight="bold" text-decoration="none" x="956.5" y="242">Recovery Password</text></g></g><g transform="translate(-318,-46) scale(1,1)"><path fill="#C0C0C0" stroke="none" d="M 681 367 L 793.5634765625 367 Q 803.5634765625 367 803.5634765625 377 L 803.5634765625 397 Q 803.5634765625 407 793.5634765625 407 L 681 407 Q 671 407 671 397 L 671 377 Q 671 367 681 367 Z" opacity="0.2"/></g><g transform="translate(-318,-46) scale(1,1)"><path fill="#ffd8ff" stroke="none" d="M 674 360 L 786.5634765625 360 Q 796.5634765625 360 796.5634765625 370 L 796.5634765625 390 Q 796.5634765625 400 786.5634765625 400 L 674 400 Q 664 400 664 390 L 664 370 Q 664 360 674 360 Z"/></g><g transform="translate(-318,-46) scale(1,1)"><path fill="none" stroke="#000000" d="M 674 360 L 786.5634765625 360 Q 796.5634765625 360 796.5634765625 370 L 796.5634765625 390 Q 796.5634765625 400 786.5634765625 400 L 674 400 Q 664 400 664 390 L 664 370 Q 664 360 674 360 Z" stroke-miterlimit="10"/></g><g transform="translate(-318,-46) scale(1,1)"><g><path fill="none" stroke="none"/><text fill="#000000" stroke="none" font-family="Arial" font-size="13px" font-style="normal" font-weight="bold" text-decoration="none" x="712.22265625" y="378">Home</text></g></g><g transform="translate(-318,-46) scale(1,1)"><path fill="none" stroke="#000000" d="M 729 75 L 729 120" stroke-miterlimit="10"/></g><g transform="translate(-318,-46) scale(1,1)"><path fill="none" stroke="#000000" d="M 724.790482243984 109.83732514237585 L 729 120 L 733.209517756016 109.83732514237585" stroke-miterlimit="10"/></g><g transform="translate(-318,-46) scale(1,1)"><path fill="none" stroke="#000000" d="M 715 160 L 715 244 L 685 244" stroke-miterlimit="10"/></g><g transform="translate(-318,-46) scale(1,1)"><path fill="none" stroke="#000000" d="M 695.1626748576241 239.790482243984 L 685 244 L 695.1626748576241 248.209517756016" stroke-miterlimit="10"/></g><g transform="translate(-318,-46) scale(1,1)"><path fill="none" stroke="#000000" d="M 745 160 L 745 244 L 776 244" stroke-miterlimit="10"/></g><g transform="translate(-318,-46) scale(1,1)"><path fill="none" stroke="#000000" d="M 765.8373251423759 248.209517756016 L 776 244 L 765.8373251423758 239.790482243984" stroke-miterlimit="10"/></g><g transform="translate(-318,-46) scale(1,1)"><path fill="none" stroke="#000000" d="M 618 264 L 618 312 L 728 312 L 728 360" stroke-miterlimit="10"/></g><g transform="translate(-318,-46) scale(1,1)"><path fill="none" stroke="#000000" d="M 723.790482243984 349.83732514237585 L 728 360 L 732.209517756016 349.83732514237585" stroke-miterlimit="10"/></g><g transform="translate(-318,-46) scale(1,1)"><g><path fill="none" stroke="none"/><text fill="#000000" stroke="none" font-family="Arial" font-size="13px" font-style="normal" font-weight="normal" text-decoration="none" x="519.5" y="298">Create Account</text></g></g><g transform="translate(-318,-46) scale(1,1)"><path fill="none" stroke="#000000" d="M 848 264 L 848 312 L 728 312 L 728 360" stroke-miterlimit="10"/></g><g transform="translate(-318,-46) scale(1,1)"><path fill="none" stroke="#000000" d="M 723.790482243984 349.83732514237585 L 728 360 L 732.209517756016 349.83732514237585" stroke-miterlimit="10"/></g><g transform="translate(-318,-46) scale(1,1)"><g><path fill="none" stroke="none"/><text fill="#000000" stroke="none" font-family="Arial" font-size="13px" font-style="normal" font-weight="normal" text-decoration="none" x="855.5" y="299">Load Account</text></g></g><g transform="translate(-318,-46) scale(1,1)"><path fill="none" stroke="#000000" d="M 909 244 L 952 244" stroke-miterlimit="10"/></g><g transform="translate(-318,-46) scale(1,1)"><path fill="none" stroke="#000000" d="M 941.8373251423759 248.209517756016 L 952 244 L 941.8373251423758 239.790482243984" stroke-miterlimit="10"/></g><g transform="translate(-318,-46) scale(1,1)"><path fill="none" stroke="#000000" d="M 1016 224 L 1016 136 L 797 136" stroke-miterlimit="10"/></g><g transform="translate(-318,-46) scale(1,1)"><path fill="none" stroke="#000000" d="M 807.1626748576241 131.790482243984 L 797 136 L 807.1626748576241 140.209517756016" stroke-miterlimit="10"/></g><g transform="translate(-318,-46) scale(1,1)"><g><path fill="none" stroke="none"/><text fill="#000000" stroke="none" font-family="Arial" font-size="13px" font-style="normal" font-weight="normal" text-decoration="none" x="1024.55908203125" y="175">Send Recovery</text><text fill="#000000" stroke="none" font-family="Arial" font-size="13px" font-style="normal" font-weight="normal" text-decoration="none" x="1052.745849609375" y="188">Email</text></g></g><g transform="translate(-318,-46) scale(1,1)"><path fill="#C0C0C0" stroke="none" d="M 681 471 L 793.5634765625 471 Q 803.5634765625 471 803.5634765625 481 L 803.5634765625 501 Q 803.5634765625 511 793.5634765625 511 L 681 511 Q 671 511 671 501 L 671 481 Q 671 471 681 471 Z" opacity="0.2"/></g><g transform="translate(-318,-46) scale(1,1)"><path fill="#ffd8ff" stroke="none" d="M 674 464 L 786.5634765625 464 Q 796.5634765625 464 796.5634765625 474 L 796.5634765625 494 Q 796.5634765625 504 786.5634765625 504 L 674 504 Q 664 504 664 494 L 664 474 Q 664 464 674 464 Z"/></g><g transform="translate(-318,-46) scale(1,1)"><path fill="none" stroke="#000000" d="M 674 464 L 786.5634765625 464 Q 796.5634765625 464 796.5634765625 474 L 796.5634765625 494 Q 796.5634765625 504 786.5634765625 504 L 674 504 Q 664 504 664 494 L 664 474 Q 664 464 674 464 Z" stroke-miterlimit="10"/></g><g transform="translate(-318,-46) scale(1,1)"><g><path fill="none" stroke="none"/><text fill="#000000" stroke="none" font-family="Arial" font-size="13px" font-style="normal" font-weight="bold" text-decoration="none" x="685.134033203125" y="482">Add Exchange</text></g></g><g transform="translate(-318,-46) scale(1,1)"><path fill="#C0C0C0" stroke="none" d="M 473 471 L 585.5634765625 471 Q 595.5634765625 471 595.5634765625 481 L 595.5634765625 501 Q 595.5634765625 511 585.5634765625 511 L 473 511 Q 463 511 463 501 L 463 481 Q 463 471 473 471 Z" opacity="0.2"/></g><g transform="translate(-318,-46) scale(1,1)"><path fill="#ffd8ff" stroke="none" d="M 466 464 L 578.5634765625 464 Q 588.5634765625 464 588.5634765625 474 L 588.5634765625 494 Q 588.5634765625 504 578.5634765625 504 L 466 504 Q 456 504 456 494 L 456 474 Q 456 464 466 464 Z"/></g><g transform="translate(-318,-46) scale(1,1)"><path fill="none" stroke="#000000" d="M 466 464 L 578.5634765625 464 Q 588.5634765625 464 588.5634765625 474 L 588.5634765625 494 Q 588.5634765625 504 578.5634765625 504 L 466 504 Q 456 504 456 494 L 456 474 Q 456 464 466 464 Z" stroke-miterlimit="10"/></g><g transform="translate(-318,-46) scale(1,1)"><g><path fill="none" stroke="none"/><text fill="#000000" stroke="none" font-family="Arial" font-size="13px" font-style="normal" font-weight="bold" text-decoration="none" x="501.337646484375" y="482">Report</text></g></g><g transform="translate(-318,-46) scale(1,1)"><path fill="#C0C0C0" stroke="none" d="M 889 471 L 1001.5634765625 471 Q 1011.5634765625 471 1011.5634765625 481 L 1011.5634765625 501 Q 1011.5634765625 511 1001.5634765625 511 L 889 511 Q 879 511 879 501 L 879 481 Q 879 471 889 471 Z" opacity="0.2"/></g><g transform="translate(-318,-46) scale(1,1)"><path fill="#ffd8ff" stroke="none" d="M 882 464 L 994.5634765625 464 Q 1004.5634765625 464 1004.5634765625 474 L 1004.5634765625 494 Q 1004.5634765625 504 994.5634765625 504 L 882 504 Q 872 504 872 494 L 872 474 Q 872 464 882 464 Z"/></g><g transform="translate(-318,-46) scale(1,1)"><path fill="none" stroke="#000000" d="M 882 464 L 994.5634765625 464 Q 1004.5634765625 464 1004.5634765625 474 L 1004.5634765625 494 Q 1004.5634765625 504 994.5634765625 504 L 882 504 Q 872 504 872 494 L 872 474 Q 872 464 882 464 Z" stroke-miterlimit="10"/></g><g transform="translate(-318,-46) scale(1,1)"><g><path fill="none" stroke="none"/><text fill="#000000" stroke="none" font-family="Arial" font-size="13px" font-style="normal" font-weight="bold" text-decoration="none" x="915.88720703125" y="482">Record</text></g></g><g transform="translate(-318,-46) scale(1,1)"><path fill="#C0C0C0" stroke="none" d="M 473 583 L 585.5634765625 583 Q 595.5634765625 583 595.5634765625 593 L 595.5634765625 613 Q 595.5634765625 623 585.5634765625 623 L 473 623 Q 463 623 463 613 L 463 593 Q 463 583 473 583 Z" opacity="0.2"/></g><g transform="translate(-318,-46) scale(1,1)"><path fill="#ffd8ff" stroke="none" d="M 466 576 L 578.5634765625 576 Q 588.5634765625 576 588.5634765625 586 L 588.5634765625 606 Q 588.5634765625 616 578.5634765625 616 L 466 616 Q 456 616 456 606 L 456 586 Q 456 576 466 576 Z"/></g><g transform="translate(-318,-46) scale(1,1)"><path fill="none" stroke="#000000" d="M 466 576 L 578.5634765625 576 Q 588.5634765625 576 588.5634765625 586 L 588.5634765625 606 Q 588.5634765625 616 578.5634765625 616 L 466 616 Q 456 616 456 606 L 456 586 Q 456 576 466 576 Z" stroke-miterlimit="10"/></g><g transform="translate(-318,-46) scale(1,1)"><g><path fill="none" stroke="none"/><text fill="#000000" stroke="none" font-family="Arial" font-size="13px" font-style="normal" font-weight="bold" text-decoration="none" x="482.21533203125" y="594">About Month</text></g></g><g transform="translate(-318,-46) scale(1,1)"><path fill="#C0C0C0" stroke="none" d="M 889 583 L 1001.5634765625 583 Q 1011.5634765625 583 1011.5634765625 593 L 1011.5634765625 613 Q 1011.5634765625 623 1001.5634765625 623 L 889 623 Q 879 623 879 613 L 879 593 Q 879 583 889 583 Z" opacity="0.2"/></g><g transform="translate(-318,-46) scale(1,1)"><path fill="#ffd8ff" stroke="none" d="M 882 576 L 994.5634765625 576 Q 1004.5634765625 576 1004.5634765625 586 L 1004.5634765625 606 Q 1004.5634765625 616 994.5634765625 616 L 882 616 Q 872 616 872 606 L 872 586 Q 872 576 882 576 Z"/></g><g transform="translate(-318,-46) scale(1,1)"><path fill="none" stroke="#000000" d="M 882 576 L 994.5634765625 576 Q 1004.5634765625 576 1004.5634765625 586 L 1004.5634765625 606 Q 1004.5634765625 616 994.5634765625 616 L 882 616 Q 872 616 872 606 L 872 586 Q 872 576 882 576 Z" stroke-miterlimit="10"/></g><g transform="translate(-318,-46) scale(1,1)"><g><path fill="none" stroke="none"/><text fill="#000000" stroke="none" font-family="Arial" font-size="13px" font-style="normal" font-weight="bold" text-decoration="none" x="886.9990234375" y="594">About Exchange</text></g></g><g transform="translate(-318,-46) scale(1,1)"><path fill="#C0C0C0" stroke="none" d="M 889 671 L 1001.5634765625 671 Q 1011.5634765625 671 1011.5634765625 681 L 1011.5634765625 701 Q 1011.5634765625 711 1001.5634765625 711 L 889 711 Q 879 711 879 701 L 879 681 Q 879 671 889 671 Z" opacity="0.2"/></g><g transform="translate(-318,-46) scale(1,1)"><path fill="#ffd8ff" stroke="none" d="M 882 664 L 994.5634765625 664 Q 1004.5634765625 664 1004.5634765625 674 L 1004.5634765625 694 Q 1004.5634765625 704 994.5634765625 704 L 882 704 Q 872 704 872 694 L 872 674 Q 872 664 882 664 Z"/></g><g transform="translate(-318,-46) scale(1,1)"><path fill="none" stroke="#000000" d="M 882 664 L 994.5634765625 664 Q 1004.5634765625 664 1004.5634765625 674 L 1004.5634765625 694 Q 1004.5634765625 704 994.5634765625 704 L 882 704 Q 872 704 872 694 L 872 674 Q 872 664 882 664 Z" stroke-miterlimit="10"/></g><g transform="translate(-318,-46) scale(1,1)"><g><path fill="none" stroke="none"/><text fill="#000000" stroke="none" font-family="Arial" font-size="13px" font-style="normal" font-weight="bold" text-decoration="none" x="893.49267578125" y="682">Edit Exchange</text></g></g><g transform="translate(-318,-46) scale(1,1)"><path fill="none" stroke="#000000" d="M 728 400 L 728 464" stroke-miterlimit="10"/></g><g transform="translate(-318,-46) scale(1,1)"><path fill="none" stroke="#000000" d="M 723.790482243984 453.83732514237585 L 728 464 L 732.209517756016 453.83732514237585" stroke-miterlimit="10"/></g><g transform="translate(-318,-46) scale(1,1)"><path fill="none" stroke="#000000" d="M 696 400 L 696 432 L 520 432 L 520 464" stroke-miterlimit="10"/></g><g transform="translate(-318,-46) scale(1,1)"><path fill="none" stroke="#000000" d="M 515.790482243984 453.83732514237585 L 520 464 L 524.209517756016 453.83732514237585" stroke-miterlimit="10"/></g><g transform="translate(-318,-46) scale(1,1)"><path fill="none" stroke="#000000" d="M 589 480 L 624 480 L 624 592 L 589 592" stroke-miterlimit="10"/></g><g transform="translate(-318,-46) scale(1,1)"><path fill="none" stroke="#000000" d="M 599.1626748576241 587.790482243984 L 589 592 L 599.1626748576241 596.209517756016" stroke-miterlimit="10"/></g><g transform="translate(-318,-46) scale(1,1)"><g><path fill="none" stroke="none"/><text fill="#000000" stroke="none" font-family="Arial" font-size="13px" font-style="normal" font-weight="normal" text-decoration="none" x="653.851318359375" y="530">See</text><text fill="#000000" stroke="none" font-family="Arial" font-size="13px" font-style="normal" font-weight="normal" text-decoration="none" x="636.871337890625" y="543">Expenses</text></g></g><g transform="translate(-318,-46) scale(1,1)"><path fill="none" stroke="#000000" d="M 456 480 L 416 480 L 416 592 L 456 592" stroke-miterlimit="10"/></g><g transform="translate(-318,-46) scale(1,1)"><path fill="none" stroke="#000000" d="M 445.83732514237585 596.209517756016 L 456 592 L 445.83732514237585 587.790482243984" stroke-miterlimit="10"/></g><g transform="translate(-318,-46) scale(1,1)"><g><path fill="none" stroke="none"/><text fill="#000000" stroke="none" font-family="Arial" font-size="13px" font-style="normal" font-weight="normal" text-decoration="none" x="361.871337890625" y="530">See</text><text fill="#000000" stroke="none" font-family="Arial" font-size="13px" font-style="normal" font-weight="normal" text-decoration="none" x="348.871337890625" y="543">Incomes</text></g></g><g transform="translate(-318,-46) scale(1,1)"><path fill="none" stroke="#000000" d="M 760 400 L 760 432 L 936 432 L 936 464" stroke-miterlimit="10"/></g><g transform="translate(-318,-46) scale(1,1)"><path fill="none" stroke="#000000" d="M 931.790482243984 453.83732514237585 L 936 464 L 940.209517756016 453.83732514237585" stroke-miterlimit="10"/></g><g transform="translate(-318,-46) scale(1,1)"><path fill="none" stroke="#000000" d="M 936 504 L 936 576" stroke-miterlimit="10"/></g><g transform="translate(-318,-46) scale(1,1)"><path fill="none" stroke="#000000" d="M 931.790482243984 565.8373251423759 L 936 576 L 940.209517756016 565.8373251423759" stroke-miterlimit="10"/></g><g transform="translate(-318,-46) scale(1,1)"><path fill="none" stroke="#000000" d="M 728 464 L 728 400" stroke-miterlimit="10"/></g><g transform="translate(-318,-46) scale(1,1)"><path fill="none" stroke="#000000" d="M 732.209517756016 410.16267485762415 L 728 400 L 723.790482243984 410.16267485762415" stroke-miterlimit="10"/></g><g transform="translate(-318,-46) scale(1,1)"><path fill="none" stroke="#000000" d="M 685 244 L 715 244 L 715 160" stroke-miterlimit="10"/></g><g transform="translate(-318,-46) scale(1,1)"><path fill="none" stroke="#000000" d="M 719.209517756016 170.16267485762415 L 715 160 L 710.790482243984 170.16267485762415" stroke-miterlimit="10"/></g><g transform="translate(-318,-46) scale(1,1)"><path fill="none" stroke="#000000" d="M 776 244 L 745 244 L 745 160" stroke-miterlimit="10"/></g><g transform="translate(-318,-46) scale(1,1)"><path fill="none" stroke="#000000" d="M 749.209517756016 170.16267485762415 L 745 160 L 740.790482243984 170.16267485762415" stroke-miterlimit="10"/></g><g transform="translate(-318,-46) scale(1,1)"><path fill="none" stroke="#000000" d="M 952 244 L 909 244" stroke-miterlimit="10"/></g><g transform="translate(-318,-46) scale(1,1)"><path fill="none" stroke="#000000" d="M 919.1626748576241 239.790482243984 L 909 244 L 919.1626748576241 248.209517756016" stroke-miterlimit="10"/></g><g transform="translate(-318,-46) scale(1,1)"><path fill="none" stroke="#000000" d="M 937 616 L 937 664" stroke-miterlimit="10"/></g><g transform="translate(-318,-46) scale(1,1)"><path fill="none" stroke="#000000" d="M 932.790482243984 653.8373251423759 L 937 664 L 941.209517756016 653.8373251423759" stroke-miterlimit="10"/></g><g transform="translate(-318,-46) scale(1,1)"><path fill="none" stroke="#000000" d="M 937 664 L 937 616" stroke-miterlimit="10"/></g><g transform="translate(-318,-46) scale(1,1)"><path fill="none" stroke="#000000" d="M 941.209517756016 626.1626748576241 L 937 616 L 932.790482243984 626.1626748576241" stroke-miterlimit="10"/></g><g transform="translate(-318,-46) scale(1,1)"><path fill="none" stroke="#000000" d="M 936 576 L 936 504" stroke-miterlimit="10"/></g><g transform="translate(-318,-46) scale(1,1)"><path fill="none" stroke="#000000" d="M 940.209517756016 514.1626748576241 L 936 504 L 931.790482243984 514.1626748576241" stroke-miterlimit="10"/></g><g transform="translate(-318,-46) scale(1,1)"><path fill="none" stroke="#000000" d="M 1005 588 L 1056 588 L 1056 376 L 797 376" stroke-miterlimit="10"/></g><g transform="translate(-318,-46) scale(1,1)"><path fill="none" stroke="#000000" d="M 807.1626748576241 371.790482243984 L 797 376 L 807.1626748576241 380.209517756016" stroke-miterlimit="10"/></g><g transform="translate(-318,-46) scale(1,1)"><g><path fill="none" stroke="none"/><text fill="#000000" stroke="none" font-family="Arial" font-size="13px" font-style="normal" font-weight="normal" text-decoration="none" x="1070.5" y="485">Delete Exchange</text></g></g><g transform="translate(-318,-46) scale(1,1)"><path fill="none" stroke="#000000" d="M 522 576 L 522 504" stroke-miterlimit="10"/></g><g transform="translate(-318,-46) scale(1,1)"><path fill="none" stroke="#000000" d="M 526.209517756016 514.1626748576241 L 522 504 L 517.790482243984 514.1626748576241" stroke-miterlimit="10"/></g><g transform="translate(-318,-46) scale(1,1)"><path fill="none" stroke="#000000" d="M 520 464 L 520 432 L 696 432 L 696 400" stroke-miterlimit="10"/></g><g transform="translate(-318,-46) scale(1,1)"><path fill="none" stroke="#000000" d="M 700.209517756016 410.16267485762415 L 696 400 L 691.790482243984 410.16267485762415" stroke-miterlimit="10"/></g><g transform="translate(-318,-46) scale(1,1)"><path fill="none" stroke="#000000" d="M 936 464 L 936 432 L 760 432 L 760 400" stroke-miterlimit="10"/></g><g transform="translate(-318,-46) scale(1,1)"><path fill="none" stroke="#000000" d="M 764.209517756016 410.16267485762415 L 760 400 L 755.790482243984 410.16267485762415" stroke-miterlimit="10"/></g></g></svg>