<svg xmlns="http://www.w3.org/2000/svg" xmlns:xlink="http://www.w3.org/1999/xlink" version="1.1" width="1115" height="652"><defs/><g><g transform="translate(-22,-30) scale(1,1)"><rect fill="#ffffff" stroke="none" x="32" y="40" width="1095" height="632"/></g><g transform="translate(-22,-30) scale(1,1)"><path fill="none" stroke="#000000" d="M 32 40 L 1127 40 L 1127 672 L 32 672 L 32 40 Z Z" stroke-miterlimit="10"/></g><g transform="translate(-22,-30) scale(1,1)"><rect fill="#C0C0C0" stroke="none" x="62" y="71" width="419.2" height="15" opacity="0.2"/></g><g transform="translate(-22,-30) scale(1,1)"><rect fill="#C0C0C0" stroke="none" x="62" y="85" width="1048" height="474" opacity="0.2"/></g><g transform="translate(-22,-30) scale(1,1)"><rect fill="#ebffd8" stroke="none" x="55" y="79" width="1048" height="473"/></g><g transform="translate(-22,-30) scale(1,1)"><path fill="none" stroke="#000000" d="M 55 79 L 1103 79 L 1103 552 L 55 552 L 55 79 Z Z" stroke-miterlimit="10"/></g><g transform="translate(-22,-30) scale(1,1)"><rect fill="#ebffd8" stroke="none" x="55" y="64" width="419.2" height="15"/></g><g transform="translate(-22,-30) scale(1,1)"><path fill="none" stroke="#000000" d="M 55 64 L 474.2 64 L 474.2 79 L 55 79 L 55 64 Z Z" stroke-miterlimit="10"/></g><g transform="translate(-22,-30) scale(1,1)"><rect fill="#ebffd8" stroke="none" x="55" y="78" width="1048" height="474"/></g><g transform="translate(-22,-30) scale(1,1)"><path fill="none" stroke="#000000" d="M 55 78 L 1103 78 L 1103 552 L 55 552 L 55 78 Z Z" stroke-miterlimit="10"/></g><g transform="translate(-22,-30) scale(1,1)"><g><path fill="none" stroke="none"/><text fill="#000000" stroke="none" font-family="Arial" font-size="13px" font-style="normal" font-weight="bold" text-decoration="none" x="573.2236328125" y="97">ui</text></g></g><g transform="translate(-22,-30) scale(1,1)"><rect fill="#C0C0C0" stroke="none" x="607" y="119" width="188.79999999999995" height="15" opacity="0.2"/></g><g transform="translate(-22,-30) scale(1,1)"><rect fill="#C0C0C0" stroke="none" x="607" y="133" width="472" height="394" opacity="0.2"/></g><g transform="translate(-22,-30) scale(1,1)"><rect fill="#d1ffa3" stroke="none" x="600" y="127" width="472" height="393"/></g><g transform="translate(-22,-30) scale(1,1)"><path fill="none" stroke="#000000" d="M 600 127 L 1072 127 L 1072 520 L 600 520 L 600 127 Z Z" stroke-miterlimit="10"/></g><g transform="translate(-22,-30) scale(1,1)"><rect fill="#d1ffa3" stroke="none" x="600" y="112" width="188.79999999999995" height="15"/></g><g transform="translate(-22,-30) scale(1,1)"><path fill="none" stroke="#000000" d="M 600 112 L 788.8 112 L 788.8 127 L 600 127 L 600 112 Z Z" stroke-miterlimit="10"/></g><g transform="translate(-22,-30) scale(1,1)"><rect fill="#d1ffa3" stroke="none" x="600" y="126" width="472" height="394"/></g><g transform="translate(-22,-30) scale(1,1)"><path fill="none" stroke="#000000" d="M 600 126 L 1072 126 L 1072 520 L 600 520 L 600 126 Z Z" stroke-miterlimit="10"/></g><g transform="translate(-22,-30) scale(1,1)"><g><path fill="none" stroke="none"/><text fill="#000000" stroke="none" font-family="Arial" font-size="13px" font-style="normal" font-weight="bold" text-decoration="none" x="811.425048828125" y="143.5">screens</text></g></g><g transform="translate(-22,-30) scale(1,1)"><rect fill="#C0C0C0" stroke="none" x="759" y="167" width="118.39999999999998" height="15" opacity="0.2"/></g><g transform="translate(-22,-30) scale(1,1)"><rect fill="#C0C0C0" stroke="none" x="759" y="181" width="296" height="106" opacity="0.2"/></g><g transform="translate(-22,-30) scale(1,1)"><rect fill="#b6ff6d" stroke="none" x="752" y="175" width="296" height="105"/></g><g transform="translate(-22,-30) scale(1,1)"><path fill="none" stroke="#000000" d="M 752 175 L 1048 175 L 1048 280 L 752 280 L 752 175 Z Z" stroke-miterlimit="10"/></g><g transform="translate(-22,-30) scale(1,1)"><rect fill="#b6ff6d" stroke="none" x="752" y="160" width="118.39999999999998" height="15"/></g><g transform="translate(-22,-30) scale(1,1)"><path fill="none" stroke="#000000" d="M 752 160 L 870.4 160 L 870.4 175 L 752 175 L 752 160 Z Z" stroke-miterlimit="10"/></g><g transform="translate(-22,-30) scale(1,1)"><rect fill="#b6ff6d" stroke="none" x="752" y="174" width="296" height="106"/></g><g transform="translate(-22,-30) scale(1,1)"><path fill="none" stroke="#000000" d="M 752 174 L 1048 174 L 1048 280 L 752 280 L 752 174 Z Z" stroke-miterlimit="10"/></g><g transform="translate(-22,-30) scale(1,1)"><g><path fill="none" stroke="none"/><text fill="#000000" stroke="none" font-family="Arial" font-size="13px" font-style="normal" font-weight="bold" text-decoration="none" x="867.496826171875" y="193">navigation</text></g></g><g transform="translate(-22,-30) scale(1,1)"><rect fill="#C0C0C0" stroke="none" x="95" y="279" width="179.2" height="15" opacity="0.2"/></g><g transform="translate(-22,-30) scale(1,1)"><rect fill="#C0C0C0" stroke="none" x="95" y="293" width="448" height="234" opacity="0.2"/></g><g transform="translate(-22,-30) scale(1,1)"><rect fill="#d1ffa3" stroke="none" x="88" y="287" width="448" height="233"/></g><g transform="translate(-22,-30) scale(1,1)"><path fill="none" stroke="#000000" d="M 88 287 L 536 287 L 536 520 L 88 520 L 88 287 Z Z" stroke-miterlimit="10"/></g><g transform="translate(-22,-30) scale(1,1)"><rect fill="#d1ffa3" stroke="none" x="88" y="272" width="179.2" height="15"/></g><g transform="translate(-22,-30) scale(1,1)"><path fill="none" stroke="#000000" d="M 88 272 L 267.2 272 L 267.2 287 L 88 287 L 88 272 Z Z" stroke-miterlimit="10"/></g><g transform="translate(-22,-30) scale(1,1)"><rect fill="#d1ffa3" stroke="none" x="88" y="286" width="448" height="234"/></g><g transform="translate(-22,-30) scale(1,1)"><path fill="none" stroke="#000000" d="M 88 286 L 536 286 L 536 520 L 88 520 L 88 286 Z Z" stroke-miterlimit="10"/></g><g transform="translate(-22,-30) scale(1,1)"><g><path fill="none" stroke="none"/><text fill="#000000" stroke="none" font-family="Arial" font-size="13px" font-style="normal" font-weight="bold" text-decoration="none" x="273.358642578125" y="304.5">components</text></g></g><g transform="translate(-22,-30) scale(1,1)"><path fill="none" stroke="#000000" d="M 808 304 L 808 256" stroke-miterlimit="10" stroke-dasharray="3"/></g><g transform="translate(-22,-30) scale(1,1)"><path fill="none" stroke="#000000" d="M 812.209517756016 266.16267485762415 L 808 256 L 803.790482243984 266.16267485762415" stroke-miterlimit="10"/></g><g transform="translate(-22,-30) scale(1,1)"><path fill="none" stroke="#000000" d="M 853 230 L 872 230" stroke-miterlimit="10" stroke-dasharray="3"/></g><g transform="translate(-22,-30) scale(1,1)"><path fill="none" stroke="#000000" d="M 861.8373251423759 234.209517756016 L 872 230 L 861.8373251423758 225.790482243984" stroke-miterlimit="10"/></g><g transform="translate(-22,-30) scale(1,1)"><rect fill="#C0C0C0" stroke="none" x="542" y="607" width="35.200000000000045" height="15" opacity="0.2"/></g><g transform="translate(-22,-30) scale(1,1)"><rect fill="#C0C0C0" stroke="none" x="542" y="621" width="88" height="34" opacity="0.2"/></g><g transform="translate(-22,-30) scale(1,1)"><rect fill="#d8f2ff" stroke="none" x="535" y="615" width="88" height="33"/></g><g transform="translate(-22,-30) scale(1,1)"><path fill="none" stroke="#000000" d="M 535 615 L 623 615 L 623 648 L 535 648 L 535 615 Z Z" stroke-miterlimit="10"/></g><g transform="translate(-22,-30) scale(1,1)"><rect fill="#d8f2ff" stroke="none" x="535" y="600" width="35.200000000000045" height="15"/></g><g transform="translate(-22,-30) scale(1,1)"><path fill="none" stroke="#000000" d="M 535 600 L 570.2 600 L 570.2 615 L 535 615 L 535 600 Z Z" stroke-miterlimit="10"/></g><g transform="translate(-22,-30) scale(1,1)"><rect fill="#d8f2ff" stroke="none" x="535" y="614" width="88" height="34"/></g><g transform="translate(-22,-30) scale(1,1)"><path fill="none" stroke="#000000" d="M 535 614 L 623 614 L 623 648 L 535 648 L 535 614 Z Z" stroke-miterlimit="10"/></g><g transform="translate(-22,-30) scale(1,1)"><g><path fill="none" stroke="none"/><text fill="#000000" stroke="none" font-family="Arial" font-size="13px" font-style="normal" font-weight="bold" text-decoration="none" x="559.858642578125" y="633">model</text></g></g><g transform="translate(-22,-30) scale(1,1)"><path fill="none" stroke="#000000" d="M 600 396 L 536 396" stroke-miterlimit="10" stroke-dasharray="3"/></g><g transform="translate(-22,-30) scale(1,1)"><path fill="none" stroke="#000000" d="M 546.1626748576241 391.790482243984 L 536 396 L 546.1626748576241 400.209517756016" stroke-miterlimit="10"/></g><g transform="translate(-22,-30) scale(1,1)"><rect fill="#C0C0C0" stroke="none" x="623" y="167" width="48.081835937500045" height="15" opacity="0.2"/></g><g transform="translate(-22,-30) scale(1,1)"><rect fill="#C0C0C0" stroke="none" x="623" y="181" width="120.20458984375" height="34" opacity="0.2"/></g><g transform="translate(-22,-30) scale(1,1)"><rect fill="#b6ff6d" stroke="none" x="616" y="175" width="120.20458984375" height="33"/></g><g transform="translate(-22,-30) scale(1,1)"><path fill="none" stroke="#000000" d="M 616 175 L 736.20458984375 175 L 736.20458984375 208 L 616 208 L 616 175 Z Z" stroke-miterlimit="10"/></g><g transform="translate(-22,-30) scale(1,1)"><rect fill="#b6ff6d" stroke="none" x="616" y="160" width="48.081835937500045" height="15"/></g><g transform="translate(-22,-30) scale(1,1)"><path fill="none" stroke="#000000" d="M 616 160 L 664.0818359375 160 L 664.0818359375 175 L 616 175 L 616 160 Z Z" stroke-miterlimit="10"/></g><g transform="translate(-22,-30) scale(1,1)"><rect fill="#b6ff6d" stroke="none" x="616" y="174" width="120.20458984375" height="34"/></g><g transform="translate(-22,-30) scale(1,1)"><path fill="none" stroke="#000000" d="M 616 174 L 736.20458984375 174 L 736.20458984375 208 L 616 208 L 616 174 Z Z" stroke-miterlimit="10"/></g><g transform="translate(-22,-30) scale(1,1)"><g><path fill="none" stroke="none"/><text fill="#000000" stroke="none" font-family="Arial" font-size="13px" font-style="normal" font-weight="bold" text-decoration="none" x="651.181396484375" y="193">settings</text></g></g><g transform="translate(-22,-30) scale(1,1)"><rect fill="#C0C0C0" stroke="none" x="95" y="119" width="179.2" height="15" opacity="0.2"/></g><g transform="translate(-22,-30) scale(1,1)"><rect fill="#C0C0C0" stroke="none" x="95" y="133" width="448" height="106" opacity="0.2"/></g><g transform="translate(-22,-30) scale(1,1)"><rect fill="#d1ffa3" stroke="none" x="88" y="127" width="448" height="105"/></g><g transform="translate(-22,-30) scale(1,1)"><path fill="none" stroke="#000000" d="M 88 127 L 536 127 L 536 232 L 88 232 L 88 127 Z Z" stroke-miterlimit="10"/></g><g transform="translate(-22,-30) scale(1,1)"><rect fill="#d1ffa3" stroke="none" x="88" y="112" width="179.2" height="15"/></g><g transform="translate(-22,-30) scale(1,1)"><path fill="none" stroke="#000000" d="M 88 112 L 267.2 112 L 267.2 127 L 88 127 L 88 112 Z Z" stroke-miterlimit="10"/></g><g transform="translate(-22,-30) scale(1,1)"><rect fill="#d1ffa3" stroke="none" x="88" y="126" width="448" height="106"/></g><g transform="translate(-22,-30) scale(1,1)"><path fill="none" stroke="#000000" d="M 88 126 L 536 126 L 536 232 L 88 232 L 88 126 Z Z" stroke-miterlimit="10"/></g><g transform="translate(-22,-30) scale(1,1)"><g><path fill="none" stroke="none"/><text fill="#000000" stroke="none" font-family="Arial" font-size="13px" font-style="normal" font-weight="bold" text-decoration="none" x="292.85546875" y="145">theme</text></g></g><g transform="translate(-22,-30) scale(1,1)"><rect fill="#C0C0C0" stroke="none" x="231" y="455" width="173.6455078125" height="48" opacity="0.2"/></g><g transform="translate(-22,-30) scale(1,1)"><rect fill="#ffd8ff" stroke="none" x="224" y="448" width="173.6455078125" height="48"/></g><g transform="translate(-22,-30) scale(1,1)"><path fill="none" stroke="#000000" d="M 224 448 L 397.6455078125 448 L 397.6455078125 496 L 224 496 L 224 448 Z Z" stroke-miterlimit="10"/></g><g transform="translate(-22,-30) scale(1,1)"><path fill="none" stroke="#000000" d="M 224 473 L 397.6455078125 473" stroke-miterlimit="10"/></g><g transform="translate(-22,-30) scale(1,1)"><path fill="none" stroke="#000000" d="M 224 483 L 397.6455078125 483" stroke-miterlimit="10"/></g><g transform="translate(-22,-30) scale(1,1)"><g><path fill="none" stroke="none"/><text fill="#000000" stroke="none" font-family="Arial" font-size="13px" font-style="normal" font-weight="bold" text-decoration="none" x="228.5" y="466">ConfigurationComponents</text></g></g><g transform="translate(-22,-30) scale(1,1)"><rect fill="#C0C0C0" stroke="none" x="439" y="455" width="32" height="15" opacity="0.2"/></g><g transform="translate(-22,-30) scale(1,1)"><rect fill="#C0C0C0" stroke="none" x="439" y="469" width="80" height="33" opacity="0.2"/></g><g transform="translate(-22,-30) scale(1,1)"><rect fill="#b6ff6d" stroke="none" x="432" y="463" width="80" height="32"/></g><g transform="translate(-22,-30) scale(1,1)"><path fill="none" stroke="#000000" d="M 432 463 L 512 463 L 512 495 L 432 495 L 432 463 Z Z" stroke-miterlimit="10"/></g><g transform="translate(-22,-30) scale(1,1)"><rect fill="#b6ff6d" stroke="none" x="432" y="448" width="32" height="15"/></g><g transform="translate(-22,-30) scale(1,1)"><path fill="none" stroke="#000000" d="M 432 448 L 464 448 L 464 463 L 432 463 L 432 448 Z Z" stroke-miterlimit="10"/></g><g transform="translate(-22,-30) scale(1,1)"><rect fill="#b6ff6d" stroke="none" x="432" y="462" width="80" height="33"/></g><g transform="translate(-22,-30) scale(1,1)"><path fill="none" stroke="#000000" d="M 432 462 L 512 462 L 512 495 L 432 495 L 432 462 Z Z" stroke-miterlimit="10"/></g><g transform="translate(-22,-30) scale(1,1)"><g><path fill="none" stroke="none"/><text fill="#000000" stroke="none" font-family="Arial" font-size="13px" font-style="normal" font-weight="bold" text-decoration="none" x="447.80908203125" y="481">popUps</text></g></g><g transform="translate(-22,-30) scale(1,1)"><rect fill="#C0C0C0" stroke="none" x="167" y="391" width="112.974609375" height="48" opacity="0.2"/></g><g transform="translate(-22,-30) scale(1,1)"><rect fill="#ffd8ff" stroke="none" x="160" y="384" width="112.974609375" height="48"/></g><g transform="translate(-22,-30) scale(1,1)"><path fill="none" stroke="#000000" d="M 160 384 L 272.974609375 384 L 272.974609375 432 L 160 432 L 160 384 Z Z" stroke-miterlimit="10"/></g><g transform="translate(-22,-30) scale(1,1)"><path fill="none" stroke="#000000" d="M 160 409 L 272.974609375 409" stroke-miterlimit="10"/></g><g transform="translate(-22,-30) scale(1,1)"><path fill="none" stroke="#000000" d="M 160 419 L 272.974609375 419" stroke-miterlimit="10"/></g><g transform="translate(-22,-30) scale(1,1)"><g><path fill="none" stroke="none"/><text fill="#000000" stroke="none" font-family="Arial" font-size="13px" font-style="normal" font-weight="bold" text-decoration="none" x="164.5" y="402">LogoComponent</text></g></g><g transform="translate(-22,-30) scale(1,1)"><rect fill="#C0C0C0" stroke="none" x="119" y="327" width="32" height="15" opacity="0.2"/></g><g transform="translate(-22,-30) scale(1,1)"><rect fill="#C0C0C0" stroke="none" x="119" y="341" width="80" height="33" opacity="0.2"/></g><g transform="translate(-22,-30) scale(1,1)"><rect fill="#b6ff6d" stroke="none" x="112" y="335" width="80" height="32"/></g><g transform="translate(-22,-30) scale(1,1)"><path fill="none" stroke="#000000" d="M 112 335 L 192 335 L 192 367 L 112 367 L 112 335 Z Z" stroke-miterlimit="10"/></g><g transform="translate(-22,-30) scale(1,1)"><rect fill="#b6ff6d" stroke="none" x="112" y="320" width="32" height="15"/></g><g transform="translate(-22,-30) scale(1,1)"><path fill="none" stroke="#000000" d="M 112 320 L 144 320 L 144 335 L 112 335 L 112 320 Z Z" stroke-miterlimit="10"/></g><g transform="translate(-22,-30) scale(1,1)"><rect fill="#b6ff6d" stroke="none" x="112" y="334" width="80" height="33"/></g><g transform="translate(-22,-30) scale(1,1)"><path fill="none" stroke="#000000" d="M 112 334 L 192 334 L 192 367 L 112 367 L 112 334 Z Z" stroke-miterlimit="10"/></g><g transform="translate(-22,-30) scale(1,1)"><g><path fill="none" stroke="none"/><text fill="#000000" stroke="none" font-family="Arial" font-size="13px" font-style="normal" font-weight="bold" text-decoration="none" x="132.503173828125" y="353">inputs</text></g></g><g transform="translate(-22,-30) scale(1,1)"><rect fill="#C0C0C0" stroke="none" x="119" y="455" width="32" height="15" opacity="0.2"/></g><g transform="translate(-22,-30) scale(1,1)"><rect fill="#C0C0C0" stroke="none" x="119" y="469" width="80" height="33" opacity="0.2"/></g><g transform="translate(-22,-30) scale(1,1)"><rect fill="#b6ff6d" stroke="none" x="112" y="463" width="80" height="32"/></g><g transform="translate(-22,-30) scale(1,1)"><path fill="none" stroke="#000000" d="M 112 463 L 192 463 L 192 495 L 112 495 L 112 463 Z Z" stroke-miterlimit="10"/></g><g transform="translate(-22,-30) scale(1,1)"><rect fill="#b6ff6d" stroke="none" x="112" y="448" width="32" height="15"/></g><g transform="translate(-22,-30) scale(1,1)"><path fill="none" stroke="#000000" d="M 112 448 L 144 448 L 144 463 L 112 463 L 112 448 Z Z" stroke-miterlimit="10"/></g><g transform="translate(-22,-30) scale(1,1)"><rect fill="#b6ff6d" stroke="none" x="112" y="462" width="80" height="33"/></g><g transform="translate(-22,-30) scale(1,1)"><path fill="none" stroke="#000000" d="M 112 462 L 192 462 L 192 495 L 112 495 L 112 462 Z Z" stroke-miterlimit="10"/></g><g transform="translate(-22,-30) scale(1,1)"><g><path fill="none" stroke="none"/><text fill="#000000" stroke="none" font-family="Arial" font-size="13px" font-style="normal" font-weight="bold" text-decoration="none" x="128.174072265625" y="481">buttons</text></g></g><g transform="translate(-22,-30) scale(1,1)"><rect fill="#C0C0C0" stroke="none" x="263" y="327" width="114.44091796875" height="48" opacity="0.2"/></g><g transform="translate(-22,-30) scale(1,1)"><rect fill="#ffd8ff" stroke="none" x="256" y="320" width="114.44091796875" height="48"/></g><g transform="translate(-22,-30) scale(1,1)"><path fill="none" stroke="#000000" d="M 256 320 L 370.44091796875 320 L 370.44091796875 368 L 256 368 L 256 320 Z Z" stroke-miterlimit="10"/></g><g transform="translate(-22,-30) scale(1,1)"><path fill="none" stroke="#000000" d="M 256 345 L 370.44091796875 345" stroke-miterlimit="10"/></g><g transform="translate(-22,-30) scale(1,1)"><path fill="none" stroke="#000000" d="M 256 355 L 370.44091796875 355" stroke-miterlimit="10"/></g><g transform="translate(-22,-30) scale(1,1)"><g><path fill="none" stroke="none"/><text fill="#000000" stroke="none" font-family="Arial" font-size="13px" font-style="normal" font-weight="bold" text-decoration="none" x="262.305908203125" y="338">CardComponent</text></g></g><g transform="translate(-22,-30) scale(1,1)"><rect fill="#C0C0C0" stroke="none" x="359" y="391" width="111.3115234375" height="48" opacity="0.2"/></g><g transform="translate(-22,-30) scale(1,1)"><rect fill="#ffd8ff" stroke="none" x="352" y="384" width="111.3115234375" height="48"/></g><g transform="translate(-22,-30) scale(1,1)"><path fill="none" stroke="#000000" d="M 352 384 L 463.3115234375 384 L 463.3115234375 432 L 352 432 L 352 384 Z Z" stroke-miterlimit="10"/></g><g transform="translate(-22,-30) scale(1,1)"><path fill="none" stroke="#000000" d="M 352 409 L 463.3115234375 409" stroke-miterlimit="10"/></g><g transform="translate(-22,-30) scale(1,1)"><path fill="none" stroke="#000000" d="M 352 419 L 463.3115234375 419" stroke-miterlimit="10"/></g><g transform="translate(-22,-30) scale(1,1)"><g><path fill="none" stroke="none"/><text fill="#000000" stroke="none" font-family="Arial" font-size="13px" font-style="normal" font-weight="bold" text-decoration="none" x="358.305908203125" y="402">TitleComponent</text></g></g><g transform="translate(-22,-30) scale(1,1)"><rect fill="#C0C0C0" stroke="none" x="439" y="327" width="32" height="15" opacity="0.2"/></g><g transform="translate(-22,-30) scale(1,1)"><rect fill="#C0C0C0" stroke="none" x="439" y="341" width="80" height="33" opacity="0.2"/></g><g transform="translate(-22,-30) scale(1,1)"><rect fill="#b6ff6d" stroke="none" x="432" y="335" width="80" height="32"/></g><g transform="translate(-22,-30) scale(1,1)"><path fill="none" stroke="#000000" d="M 432 335 L 512 335 L 512 367 L 432 367 L 432 335 Z Z" stroke-miterlimit="10"/></g><g transform="translate(-22,-30) scale(1,1)"><rect fill="#b6ff6d" stroke="none" x="432" y="320" width="32" height="15"/></g><g transform="translate(-22,-30) scale(1,1)"><path fill="none" stroke="#000000" d="M 432 320 L 464 320 L 464 335 L 432 335 L 432 320 Z Z" stroke-miterlimit="10"/></g><g transform="translate(-22,-30) scale(1,1)"><rect fill="#b6ff6d" stroke="none" x="432" y="334" width="80" height="33"/></g><g transform="translate(-22,-30) scale(1,1)"><path fill="none" stroke="#000000" d="M 432 334 L 512 334 L 512 367 L 432 367 L 432 334 Z Z" stroke-miterlimit="10"/></g><g transform="translate(-22,-30) scale(1,1)"><g><path fill="none" stroke="none"/><text fill="#000000" stroke="none" font-family="Arial" font-size="13px" font-style="normal" font-weight="bold" text-decoration="none" x="452.490478515625" y="353">charts</text></g></g><g transform="translate(-22,-30) scale(1,1)"><path fill="none" stroke="#000000" d="M 600 184 L 536 184" stroke-miterlimit="10" stroke-dasharray="3"/></g><g transform="translate(-22,-30) scale(1,1)"><path fill="none" stroke="#000000" d="M 546.1626748576241 179.790482243984 L 536 184 L 546.1626748576241 188.209517756016" stroke-miterlimit="10"/></g><g transform="translate(-22,-30) scale(1,1)"><path fill="none" stroke="#000000" d="M 312 272 L 312 232" stroke-miterlimit="10" stroke-dasharray="3"/></g><g transform="translate(-22,-30) scale(1,1)"><path fill="none" stroke="#000000" d="M 316.209517756016 242.16267485762415 L 312 232 L 307.790482243984 242.16267485762415" stroke-miterlimit="10"/></g><g transform="translate(-22,-30) scale(1,1)"><rect fill="#C0C0C0" stroke="none" x="767" y="311" width="104" height="48" opacity="0.2"/></g><g transform="translate(-22,-30) scale(1,1)"><rect fill="#ffd8ff" stroke="none" x="760" y="304" width="104" height="48"/></g><g transform="translate(-22,-30) scale(1,1)"><path fill="none" stroke="#000000" d="M 760 304 L 864 304 L 864 352 L 760 352 L 760 304 Z Z" stroke-miterlimit="10"/></g><g transform="translate(-22,-30) scale(1,1)"><path fill="none" stroke="#000000" d="M 760 329 L 864 329" stroke-miterlimit="10"/></g><g transform="translate(-22,-30) scale(1,1)"><path fill="none" stroke="#000000" d="M 760 339 L 864 339" stroke-miterlimit="10"/></g><g transform="translate(-22,-30) scale(1,1)"><g><path fill="none" stroke="none"/><text fill="#000000" stroke="none" font-family="Arial" font-size="13px" font-style="normal" font-weight="bold" text-decoration="none" x="766.13818359375" y="322">AppNavigation</text></g></g><g transform="translate(-22,-30) scale(1,1)"><rect fill="#C0C0C0" stroke="none" x="119" y="167" width="62.44091796875" height="48" opacity="0.2"/></g><g transform="translate(-22,-30) scale(1,1)"><rect fill="#ffd8ff" stroke="none" x="112" y="160" width="62.44091796875" height="48"/></g><g transform="translate(-22,-30) scale(1,1)"><path fill="none" stroke="#000000" d="M 112 160 L 174.44091796875 160 L 174.44091796875 208 L 112 208 L 112 160 Z Z" stroke-miterlimit="10"/></g><g transform="translate(-22,-30) scale(1,1)"><path fill="none" stroke="#000000" d="M 112 185 L 174.44091796875 185" stroke-miterlimit="10"/></g><g transform="translate(-22,-30) scale(1,1)"><path fill="none" stroke="#000000" d="M 112 195 L 174.44091796875 195" stroke-miterlimit="10"/></g><g transform="translate(-22,-30) scale(1,1)"><g><path fill="none" stroke="none"/><text fill="#000000" stroke="none" font-family="Arial" font-size="13px" font-style="normal" font-weight="bold" text-decoration="none" x="119.740478515625" y="178">Dimens</text></g></g><g transform="translate(-22,-30) scale(1,1)"><rect fill="#C0C0C0" stroke="none" x="199" y="167" width="72" height="48" opacity="0.2"/></g><g transform="translate(-22,-30) scale(1,1)"><rect fill="#ffd8ff" stroke="none" x="192" y="160" width="72" height="48"/></g><g transform="translate(-22,-30) scale(1,1)"><path fill="none" stroke="#000000" d="M 192 160 L 264 160 L 264 208 L 192 208 L 192 160 Z Z" stroke-miterlimit="10"/></g><g transform="translate(-22,-30) scale(1,1)"><path fill="none" stroke="#000000" d="M 192 185 L 264 185" stroke-miterlimit="10"/></g><g transform="translate(-22,-30) scale(1,1)"><path fill="none" stroke="#000000" d="M 192 195 L 264 195" stroke-miterlimit="10"/></g><g transform="translate(-22,-30) scale(1,1)"><g><path fill="none" stroke="none"/><text fill="#000000" stroke="none" font-family="Arial" font-size="13px" font-style="normal" font-weight="bold" text-decoration="none" x="201.279541015625" y="178">AppUtils</text></g></g><g transform="translate(-22,-30) scale(1,1)"><rect fill="#C0C0C0" stroke="none" x="287" y="167" width="62.44091796875" height="48" opacity="0.2"/></g><g transform="translate(-22,-30) scale(1,1)"><rect fill="#ffd8ff" stroke="none" x="280" y="160" width="62.44091796875" height="48"/></g><g transform="translate(-22,-30) scale(1,1)"><path fill="none" stroke="#000000" d="M 280 160 L 342.44091796875 160 L 342.44091796875 208 L 280 208 L 280 160 Z Z" stroke-miterlimit="10"/></g><g transform="translate(-22,-30) scale(1,1)"><path fill="none" stroke="#000000" d="M 280 185 L 342.44091796875 185" stroke-miterlimit="10"/></g><g transform="translate(-22,-30) scale(1,1)"><path fill="none" stroke="#000000" d="M 280 195 L 342.44091796875 195" stroke-miterlimit="10"/></g><g transform="translate(-22,-30) scale(1,1)"><g><path fill="none" stroke="none"/><text fill="#000000" stroke="none" font-family="Arial" font-size="13px" font-style="normal" font-weight="bold" text-decoration="none" x="294.25" y="178">Color</text></g></g><g transform="translate(-22,-30) scale(1,1)"><rect fill="#C0C0C0" stroke="none" x="367" y="167" width="70.44091796875" height="48" opacity="0.2"/></g><g transform="translate(-22,-30) scale(1,1)"><rect fill="#ffd8ff" stroke="none" x="360" y="160" width="70.44091796875" height="48"/></g><g transform="translate(-22,-30) scale(1,1)"><path fill="none" stroke="#000000" d="M 360 160 L 430.44091796875 160 L 430.44091796875 208 L 360 208 L 360 160 Z Z" stroke-miterlimit="10"/></g><g transform="translate(-22,-30) scale(1,1)"><path fill="none" stroke="#000000" d="M 360 185 L 430.44091796875 185" stroke-miterlimit="10"/></g><g transform="translate(-22,-30) scale(1,1)"><path fill="none" stroke="#000000" d="M 360 195 L 430.44091796875 195" stroke-miterlimit="10"/></g><g transform="translate(-22,-30) scale(1,1)"><g><path fill="none" stroke="none"/><text fill="#000000" stroke="none" font-family="Arial" font-size="13px" font-style="normal" font-weight="bold" text-decoration="none" x="374.27001953125" y="178">Theme</text></g></g><g transform="translate(-22,-30) scale(1,1)"><rect fill="#C0C0C0" stroke="none" x="455" y="167" width="62.44091796875" height="48" opacity="0.2"/></g><g transform="translate(-22,-30) scale(1,1)"><rect fill="#ffd8ff" stroke="none" x="448" y="160" width="62.44091796875" height="48"/></g><g transform="translate(-22,-30) scale(1,1)"><path fill="none" stroke="#000000" d="M 448 160 L 510.44091796875 160 L 510.44091796875 208 L 448 208 L 448 160 Z Z" stroke-miterlimit="10"/></g><g transform="translate(-22,-30) scale(1,1)"><path fill="none" stroke="#000000" d="M 448 185 L 510.44091796875 185" stroke-miterlimit="10"/></g><g transform="translate(-22,-30) scale(1,1)"><path fill="none" stroke="#000000" d="M 448 195 L 510.44091796875 195" stroke-miterlimit="10"/></g><g transform="translate(-22,-30) scale(1,1)"><g><path fill="none" stroke="none"/><text fill="#000000" stroke="none" font-family="Arial" font-size="13px" font-style="normal" font-weight="bold" text-decoration="none" x="464.531982421875" y="178">Type</text></g></g><g transform="translate(-22,-30) scale(1,1)"><rect fill="#C0C0C0" stroke="none" x="775" y="215" width="84.86083984375" height="48" opacity="0.2"/></g><g transform="translate(-22,-30) scale(1,1)"><rect fill="#ffa3ff" stroke="none" x="768" y="208" width="84.86083984375" height="48"/></g><g transform="translate(-22,-30) scale(1,1)"><path fill="none" stroke="#000000" d="M 768 208 L 852.86083984375 208 L 852.86083984375 256 L 768 256 L 768 208 Z Z" stroke-miterlimit="10"/></g><g transform="translate(-22,-30) scale(1,1)"><path fill="none" stroke="#000000" d="M 768 233 L 852.86083984375 233" stroke-miterlimit="10"/></g><g transform="translate(-22,-30) scale(1,1)"><path fill="none" stroke="#000000" d="M 768 243 L 852.86083984375 243" stroke-miterlimit="10"/></g><g transform="translate(-22,-30) scale(1,1)"><g><path fill="none" stroke="none"/><text fill="#000000" stroke="none" font-family="Arial" font-size="13px" font-style="normal" font-weight="bold" text-decoration="none" x="772.5" y="226">AppScreens</text></g></g><g transform="translate(-22,-30) scale(1,1)"><rect fill="#C0C0C0" stroke="none" x="879" y="215" width="160.658203125" height="48" opacity="0.2"/></g><g transform="translate(-22,-30) scale(1,1)"><rect fill="#ffa3ff" stroke="none" x="872" y="208" width="160.658203125" height="48"/></g><g transform="translate(-22,-30) scale(1,1)"><path fill="none" stroke="#000000" d="M 872 208 L 1032.658203125 208 L 1032.658203125 256 L 872 256 L 872 208 Z Z" stroke-miterlimit="10"/></g><g transform="translate(-22,-30) scale(1,1)"><path fill="none" stroke="#000000" d="M 872 233 L 1032.658203125 233" stroke-miterlimit="10"/></g><g transform="translate(-22,-30) scale(1,1)"><path fill="none" stroke="#000000" d="M 872 243 L 1032.658203125 243" stroke-miterlimit="10"/></g><g transform="translate(-22,-30) scale(1,1)"><g><path fill="none" stroke="none"/><text fill="#000000" stroke="none" font-family="Arial" font-size="13px" font-style="normal" font-weight="bold" text-decoration="none" x="876.5" y="226">ConfigurationNavigation</text></g></g><g transform="translate(-22,-30) scale(1,1)"><rect fill="#C0C0C0" stroke="none" x="903" y="319" width="54.39999999999998" height="15" opacity="0.2"/></g><g transform="translate(-22,-30) scale(1,1)"><rect fill="#C0C0C0" stroke="none" x="903" y="333" width="136" height="170" opacity="0.2"/></g><g transform="translate(-22,-30) scale(1,1)"><rect fill="#b6ff6d" stroke="none" x="896" y="327" width="136" height="169"/></g><g transform="translate(-22,-30) scale(1,1)"><path fill="none" stroke="#000000" d="M 896 327 L 1032 327 L 1032 496 L 896 496 L 896 327 Z Z" stroke-miterlimit="10"/></g><g transform="translate(-22,-30) scale(1,1)"><rect fill="#b6ff6d" stroke="none" x="896" y="312" width="54.39999999999998" height="15"/></g><g transform="translate(-22,-30) scale(1,1)"><path fill="none" stroke="#000000" d="M 896 312 L 950.4 312 L 950.4 327 L 896 327 L 896 312 Z Z" stroke-miterlimit="10"/></g><g transform="translate(-22,-30) scale(1,1)"><rect fill="#b6ff6d" stroke="none" x="896" y="326" width="136" height="170"/></g><g transform="translate(-22,-30) scale(1,1)"><path fill="none" stroke="#000000" d="M 896 326 L 1032 326 L 1032 496 L 896 496 L 896 326 Z Z" stroke-miterlimit="10"/></g><g transform="translate(-22,-30) scale(1,1)"><g><path fill="none" stroke="none"/><text fill="#000000" stroke="none" font-family="Arial" font-size="13px" font-style="normal" font-weight="bold" text-decoration="none" x="941.246826171875" y="345">utilities</text></g></g><g transform="translate(-22,-30) scale(1,1)"><rect fill="#C0C0C0" stroke="none" x="919" y="431" width="104" height="48" opacity="0.2"/></g><g transform="translate(-22,-30) scale(1,1)"><rect fill="#ffa3ff" stroke="none" x="912" y="424" width="104" height="48"/></g><g transform="translate(-22,-30) scale(1,1)"><path fill="none" stroke="#000000" d="M 912 424 L 1016 424 L 1016 472 L 912 472 L 912 424 Z Z" stroke-miterlimit="10"/></g><g transform="translate(-22,-30) scale(1,1)"><path fill="none" stroke="#000000" d="M 912 449 L 1016 449" stroke-miterlimit="10"/></g><g transform="translate(-22,-30) scale(1,1)"><path fill="none" stroke="#000000" d="M 912 459 L 1016 459" stroke-miterlimit="10"/></g><g transform="translate(-22,-30) scale(1,1)"><g><path fill="none" stroke="none"/><text fill="#000000" stroke="none" font-family="Arial" font-size="13px" font-style="normal" font-weight="bold" text-decoration="none" x="940.523193359375" y="442">Utilities</text></g></g><g transform="translate(-22,-30) scale(1,1)"><rect fill="#C0C0C0" stroke="none" x="919" y="367" width="102.90087890625" height="48" opacity="0.2"/></g><g transform="translate(-22,-30) scale(1,1)"><rect fill="#ffa3ff" stroke="none" x="912" y="360" width="102.90087890625" height="48"/></g><g transform="translate(-22,-30) scale(1,1)"><path fill="none" stroke="#000000" d="M 912 360 L 1014.90087890625 360 L 1014.90087890625 408 L 912 408 L 912 360 Z Z" stroke-miterlimit="10"/></g><g transform="translate(-22,-30) scale(1,1)"><path fill="none" stroke="#000000" d="M 912 385 L 1014.90087890625 385" stroke-miterlimit="10"/></g><g transform="translate(-22,-30) scale(1,1)"><path fill="none" stroke="#000000" d="M 912 395 L 1014.90087890625 395" stroke-miterlimit="10"/></g><g transform="translate(-22,-30) scale(1,1)"><g><path fill="none" stroke="none"/><text fill="#000000" stroke="none" font-family="Arial" font-size="13px" font-style="normal" font-weight="bold" text-decoration="none" x="916.5" y="378">FormValidation</text></g></g><g transform="translate(-22,-30) scale(1,1)"><path fill="none" stroke="#000000" d="M 840 112 L 840 104 L 1088 104 L 1088 416 L 1032 416" stroke-miterlimit="10" stroke-dasharray="3"/></g><g transform="translate(-22,-30) scale(1,1)"><path fill="none" stroke="#000000" d="M 1042.162674857624 411.790482243984 L 1032 416 L 1042.162674857624 420.209517756016" stroke-miterlimit="10"/></g><g transform="translate(-22,-30) scale(1,1)"><rect fill="#C0C0C0" stroke="none" x="767" y="383" width="104.47900390625" height="48" opacity="0.2"/></g><g transform="translate(-22,-30) scale(1,1)"><rect fill="#ffd8ff" stroke="none" x="760" y="376" width="104.47900390625" height="48"/></g><g transform="translate(-22,-30) scale(1,1)"><path fill="none" stroke="#000000" d="M 760 376 L 864.47900390625 376 L 864.47900390625 424 L 760 424 L 760 376 Z Z" stroke-miterlimit="10"/></g><g transform="translate(-22,-30) scale(1,1)"><path fill="none" stroke="#000000" d="M 760 401 L 864.47900390625 401" stroke-miterlimit="10"/></g><g transform="translate(-22,-30) scale(1,1)"><path fill="none" stroke="#000000" d="M 760 411 L 864.47900390625 411" stroke-miterlimit="10"/></g><g transform="translate(-22,-30) scale(1,1)"><g><path fill="none" stroke="none"/><text fill="#000000" stroke="none" font-family="Arial" font-size="13px" font-style="normal" font-weight="bold" text-decoration="none" x="772.5" y="394">HomeScreen</text></g></g><g transform="translate(-22,-30) scale(1,1)"><rect fill="#C0C0C0" stroke="none" x="767" y="455" width="104" height="48" opacity="0.2"/></g><g transform="translate(-22,-30) scale(1,1)"><rect fill="#ffd8ff" stroke="none" x="760" y="448" width="104" height="48"/></g><g transform="translate(-22,-30) scale(1,1)"><path fill="none" stroke="#000000" d="M 760 448 L 864 448 L 864 496 L 760 496 L 760 448 Z Z" stroke-miterlimit="10"/></g><g transform="translate(-22,-30) scale(1,1)"><path fill="none" stroke="#000000" d="M 760 473 L 864 473" stroke-miterlimit="10"/></g><g transform="translate(-22,-30) scale(1,1)"><path fill="none" stroke="#000000" d="M 760 483 L 864 483" stroke-miterlimit="10"/></g><g transform="translate(-22,-30) scale(1,1)"><g><path fill="none" stroke="none"/><text fill="#000000" stroke="none" font-family="Arial" font-size="13px" font-style="normal" font-weight="bold" text-decoration="none" x="775.513671875" y="466">MainScreen</text></g></g><g transform="translate(-22,-30) scale(1,1)"><rect fill="#C0C0C0" stroke="none" x="623" y="239" width="48.081835937500045" height="15" opacity="0.2"/></g><g transform="translate(-22,-30) scale(1,1)"><rect fill="#C0C0C0" stroke="none" x="623" y="253" width="120.20458984375" height="34" opacity="0.2"/></g><g transform="translate(-22,-30) scale(1,1)"><rect fill="#b6ff6d" stroke="none" x="616" y="247" width="120.20458984375" height="33"/></g><g transform="translate(-22,-30) scale(1,1)"><path fill="none" stroke="#000000" d="M 616 247 L 736.20458984375 247 L 736.20458984375 280 L 616 280 L 616 247 Z Z" stroke-miterlimit="10"/></g><g transform="translate(-22,-30) scale(1,1)"><rect fill="#b6ff6d" stroke="none" x="616" y="232" width="48.081835937500045" height="15"/></g><g transform="translate(-22,-30) scale(1,1)"><path fill="none" stroke="#000000" d="M 616 232 L 664.0818359375 232 L 664.0818359375 247 L 616 247 L 616 232 Z Z" stroke-miterlimit="10"/></g><g transform="translate(-22,-30) scale(1,1)"><rect fill="#b6ff6d" stroke="none" x="616" y="246" width="120.20458984375" height="34"/></g><g transform="translate(-22,-30) scale(1,1)"><path fill="none" stroke="#000000" d="M 616 246 L 736.20458984375 246 L 736.20458984375 280 L 616 280 L 616 246 Z Z" stroke-miterlimit="10"/></g><g transform="translate(-22,-30) scale(1,1)"><g><path fill="none" stroke="none"/><text fill="#000000" stroke="none" font-family="Arial" font-size="13px" font-style="normal" font-weight="bold" text-decoration="none" x="620.5" y="265">monthInformation</text></g></g><g transform="translate(-22,-30) scale(1,1)"><rect fill="#C0C0C0" stroke="none" x="623" y="311" width="48.081835937500045" height="15" opacity="0.2"/></g><g transform="translate(-22,-30) scale(1,1)"><rect fill="#C0C0C0" stroke="none" x="623" y="325" width="120.20458984375" height="34" opacity="0.2"/></g><g transform="translate(-22,-30) scale(1,1)"><rect fill="#b6ff6d" stroke="none" x="616" y="319" width="120.20458984375" height="33"/></g><g transform="translate(-22,-30) scale(1,1)"><path fill="none" stroke="#000000" d="M 616 319 L 736.20458984375 319 L 736.20458984375 352 L 616 352 L 616 319 Z Z" stroke-miterlimit="10"/></g><g transform="translate(-22,-30) scale(1,1)"><rect fill="#b6ff6d" stroke="none" x="616" y="304" width="48.081835937500045" height="15"/></g><g transform="translate(-22,-30) scale(1,1)"><path fill="none" stroke="#000000" d="M 616 304 L 664.0818359375 304 L 664.0818359375 319 L 616 319 L 616 304 Z Z" stroke-miterlimit="10"/></g><g transform="translate(-22,-30) scale(1,1)"><rect fill="#b6ff6d" stroke="none" x="616" y="318" width="120.20458984375" height="34"/></g><g transform="translate(-22,-30) scale(1,1)"><path fill="none" stroke="#000000" d="M 616 318 L 736.20458984375 318 L 736.20458984375 352 L 616 352 L 616 318 Z Z" stroke-miterlimit="10"/></g><g transform="translate(-22,-30) scale(1,1)"><g><path fill="none" stroke="none"/><text fill="#000000" stroke="none" font-family="Arial" font-size="13px" font-style="normal" font-weight="bold" text-decoration="none" x="631.6845703125" y="337">authentication</text></g></g><g transform="translate(-22,-30) scale(1,1)"><rect fill="#C0C0C0" stroke="none" x="623" y="383" width="48.081835937500045" height="15" opacity="0.2"/></g><g transform="translate(-22,-30) scale(1,1)"><rect fill="#C0C0C0" stroke="none" x="623" y="397" width="120.20458984375" height="34" opacity="0.2"/></g><g transform="translate(-22,-30) scale(1,1)"><rect fill="#b6ff6d" stroke="none" x="616" y="391" width="120.20458984375" height="33"/></g><g transform="translate(-22,-30) scale(1,1)"><path fill="none" stroke="#000000" d="M 616 391 L 736.20458984375 391 L 736.20458984375 424 L 616 424 L 616 391 Z Z" stroke-miterlimit="10"/></g><g transform="translate(-22,-30) scale(1,1)"><rect fill="#b6ff6d" stroke="none" x="616" y="376" width="48.081835937500045" height="15"/></g><g transform="translate(-22,-30) scale(1,1)"><path fill="none" stroke="#000000" d="M 616 376 L 664.0818359375 376 L 664.0818359375 391 L 616 391 L 616 376 Z Z" stroke-miterlimit="10"/></g><g transform="translate(-22,-30) scale(1,1)"><rect fill="#b6ff6d" stroke="none" x="616" y="390" width="120.20458984375" height="34"/></g><g transform="translate(-22,-30) scale(1,1)"><path fill="none" stroke="#000000" d="M 616 390 L 736.20458984375 390 L 736.20458984375 424 L 616 424 L 616 390 Z Z" stroke-miterlimit="10"/></g><g transform="translate(-22,-30) scale(1,1)"><g><path fill="none" stroke="none"/><text fill="#000000" stroke="none" font-family="Arial" font-size="13px" font-style="normal" font-weight="bold" text-decoration="none" x="624.445068359375" y="409">moneyExchange</text></g></g><g transform="translate(-22,-30) scale(1,1)"><rect fill="#C0C0C0" stroke="none" x="623" y="455" width="48" height="15" opacity="0.2"/></g><g transform="translate(-22,-30) scale(1,1)"><rect fill="#C0C0C0" stroke="none" x="623" y="469" width="120" height="33" opacity="0.2"/></g><g transform="translate(-22,-30) scale(1,1)"><rect fill="#b6ff6d" stroke="none" x="616" y="463" width="120" height="32"/></g><g transform="translate(-22,-30) scale(1,1)"><path fill="none" stroke="#000000" d="M 616 463 L 736 463 L 736 495 L 616 495 L 616 463 Z Z" stroke-miterlimit="10"/></g><g transform="translate(-22,-30) scale(1,1)"><rect fill="#b6ff6d" stroke="none" x="616" y="448" width="48" height="15"/></g><g transform="translate(-22,-30) scale(1,1)"><path fill="none" stroke="#000000" d="M 616 448 L 664 448 L 664 463 L 616 463 L 616 448 Z Z" stroke-miterlimit="10"/></g><g transform="translate(-22,-30) scale(1,1)"><rect fill="#b6ff6d" stroke="none" x="616" y="462" width="120" height="33"/></g><g transform="translate(-22,-30) scale(1,1)"><path fill="none" stroke="#000000" d="M 616 462 L 736 462 L 736 495 L 616 495 L 616 462 Z Z" stroke-miterlimit="10"/></g><g transform="translate(-22,-30) scale(1,1)"><g><path fill="none" stroke="none"/><text fill="#000000" stroke="none" font-family="Arial" font-size="13px" font-style="normal" font-weight="bold" text-decoration="none" x="645.299560546875" y="479.5">commons</text></g></g><g transform="translate(-22,-30) scale(1,1)"><path fill="none" stroke="#000000" d="M 576 552 L 576 600" stroke-miterlimit="10" stroke-dasharray="3"/></g><g transform="translate(-22,-30) scale(1,1)"><path fill="none" stroke="#000000" d="M 571.790482243984 589.8373251423759 L 576 600 L 580.209517756016 589.8373251423759" stroke-miterlimit="10"/></g></g></svg>