<svg xmlns="http://www.w3.org/2000/svg" xmlns:xlink="http://www.w3.org/1999/xlink" version="1.1" width="885.708984375" height="276"><defs/><g><g transform="translate(-110,-70) scale(1,1)"><path fill="#C0C0C0" stroke="none" d="M 137 191 L 238.708984375 191 Q 248.708984375 191 248.708984375 201 L 248.708984375 221 Q 248.708984375 231 238.708984375 231 L 137 231 Q 127 231 127 221 L 127 201 Q 127 191 137 191 Z" opacity="0.2"/></g><g transform="translate(-110,-70) scale(1,1)"><path fill="#ffe2d8" stroke="none" d="M 130 184 L 231.708984375 184 Q 241.708984375 184 241.708984375 194 L 241.708984375 214 Q 241.708984375 224 231.708984375 224 L 130 224 Q 120 224 120 214 L 120 194 Q 120 184 130 184 Z"/></g><g transform="translate(-110,-70) scale(1,1)"><path fill="none" stroke="#000000" d="M 130 184 L 231.708984375 184 Q 241.708984375 184 241.708984375 194 L 241.708984375 214 Q 241.708984375 224 231.708984375 224 L 130 224 Q 120 224 120 214 L 120 194 Q 120 184 130 184 Z" stroke-miterlimit="10"/></g><g transform="translate(-110,-70) scale(1,1)"><g><path fill="none" stroke="none"/><text fill="#000000" stroke="none" font-family="Arial" font-size="13px" font-style="normal" font-weight="bold" text-decoration="none" x="166.76904296875" y="202">Help</text></g></g><g transform="translate(-110,-70) scale(1,1)"><path fill="#C0C0C0" stroke="none" d="M 697 191 L 798.708984375 191 Q 808.708984375 191 808.708984375 201 L 808.708984375 221 Q 808.708984375 231 798.708984375 231 L 697 231 Q 687 231 687 221 L 687 201 Q 687 191 697 191 Z" opacity="0.2"/></g><g transform="translate(-110,-70) scale(1,1)"><path fill="#ffe2d8" stroke="none" d="M 690 184 L 791.708984375 184 Q 801.708984375 184 801.708984375 194 L 801.708984375 214 Q 801.708984375 224 791.708984375 224 L 690 224 Q 680 224 680 214 L 680 194 Q 680 184 690 184 Z"/></g><g transform="translate(-110,-70) scale(1,1)"><path fill="none" stroke="#000000" d="M 690 184 L 791.708984375 184 Q 801.708984375 184 801.708984375 194 L 801.708984375 214 Q 801.708984375 224 791.708984375 224 L 690 224 Q 680 224 680 214 L 680 194 Q 680 184 690 184 Z" stroke-miterlimit="10"/></g><g transform="translate(-110,-70) scale(1,1)"><g><path fill="none" stroke="none"/><text fill="#000000" stroke="none" font-family="Arial" font-size="13px" font-style="normal" font-weight="bold" text-decoration="none" x="719.916748046875" y="202">Option</text></g></g><g transform="translate(-110,-70) scale(1,1)"><path fill="#C0C0C0" stroke="none" d="M 313 191 L 414.708984375 191 Q 424.708984375 191 424.708984375 201 L 424.708984375 221 Q 424.708984375 231 414.708984375 231 L 313 231 Q 303 231 303 221 L 303 201 Q 303 191 313 191 Z" opacity="0.2"/></g><g transform="translate(-110,-70) scale(1,1)"><path fill="#ffe2d8" stroke="none" d="M 306 184 L 407.708984375 184 Q 417.708984375 184 417.708984375 194 L 417.708984375 214 Q 417.708984375 224 407.708984375 224 L 306 224 Q 296 224 296 214 L 296 194 Q 296 184 306 184 Z"/></g><g transform="translate(-110,-70) scale(1,1)"><path fill="none" stroke="#000000" d="M 306 184 L 407.708984375 184 Q 417.708984375 184 417.708984375 194 L 417.708984375 214 Q 417.708984375 224 407.708984375 224 L 306 224 Q 296 224 296 214 L 296 194 Q 296 184 306 184 Z" stroke-miterlimit="10"/></g><g transform="translate(-110,-70) scale(1,1)"><g><path fill="none" stroke="none"/><text fill="#000000" stroke="none" font-family="Arial" font-size="13px" font-style="normal" font-weight="bold" text-decoration="none" x="326.1572265625" y="202">Language</text></g></g><g transform="translate(-110,-70) scale(1,1)"><path fill="none" stroke="#000000" d="M 243 204 L 295 204" stroke-miterlimit="10"/></g><g transform="translate(-110,-70) scale(1,1)"><path fill="none" stroke="#000000" d="M 284.83732514237585 208.209517756016 L 295 204 L 284.83732514237585 199.790482243984" stroke-miterlimit="10"/></g><g transform="translate(-110,-70) scale(1,1)"><path fill="none" stroke="#000000" d="M 295 204 L 243 204" stroke-miterlimit="10"/></g><g transform="translate(-110,-70) scale(1,1)"><path fill="none" stroke="#000000" d="M 253.16267485762415 199.790482243984 L 243 204 L 253.16267485762415 208.209517756016" stroke-miterlimit="10"/></g><g transform="translate(-110,-70) scale(1,1)"><path fill="#C0C0C0" stroke="none" d="M 225 302 L 326.708984375 302 Q 336.708984375 302 336.708984375 312 L 336.708984375 332 Q 336.708984375 342 326.708984375 342 L 225 342 Q 215 342 215 332 L 215 312 Q 215 302 225 302 Z" opacity="0.2"/></g><g transform="translate(-110,-70) scale(1,1)"><path fill="#ebffd8" stroke="none" d="M 218 295 L 319.708984375 295 Q 329.708984375 295 329.708984375 305 L 329.708984375 325 Q 329.708984375 335 319.708984375 335 L 218 335 Q 208 335 208 325 L 208 305 Q 208 295 218 295 Z"/></g><g transform="translate(-110,-70) scale(1,1)"><path fill="none" stroke="#000000" d="M 218 295 L 319.708984375 295 Q 329.708984375 295 329.708984375 305 L 329.708984375 325 Q 329.708984375 335 319.708984375 335 L 218 335 Q 208 335 208 325 L 208 305 Q 208 295 218 295 Z" stroke-miterlimit="10"/></g><g transform="translate(-110,-70) scale(1,1)"><g><path fill="none" stroke="none"/><text fill="#000000" stroke="none" font-family="Arial" font-size="13px" font-style="normal" font-weight="bold" text-decoration="none" x="212.5" y="313">Unregistered User</text></g></g><g transform="translate(-110,-70) scale(1,1)"><path fill="#C0C0C0" stroke="none" d="M 601 303 L 702.708984375 303 Q 712.708984375 303 712.708984375 313 L 712.708984375 333 Q 712.708984375 343 702.708984375 343 L 601 343 Q 591 343 591 333 L 591 313 Q 591 303 601 303 Z" opacity="0.2"/></g><g transform="translate(-110,-70) scale(1,1)"><path fill="#ffd8ff" stroke="none" d="M 594 296 L 695.708984375 296 Q 705.708984375 296 705.708984375 306 L 705.708984375 326 Q 705.708984375 336 695.708984375 336 L 594 336 Q 584 336 584 326 L 584 306 Q 584 296 594 296 Z"/></g><g transform="translate(-110,-70) scale(1,1)"><path fill="none" stroke="#000000" d="M 594 296 L 695.708984375 296 Q 705.708984375 296 705.708984375 306 L 705.708984375 326 Q 705.708984375 336 695.708984375 336 L 594 336 Q 584 336 584 326 L 584 306 Q 584 296 594 296 Z" stroke-miterlimit="10"/></g><g transform="translate(-110,-70) scale(1,1)"><g><path fill="none" stroke="none"/><text fill="#000000" stroke="none" font-family="Arial" font-size="13px" font-style="normal" font-weight="bold" text-decoration="none" x="595" y="314">Registered User</text></g></g><g transform="translate(-110,-70) scale(1,1)"><path fill="#C0C0C0" stroke="none" d="M 505 191 L 606.708984375 191 Q 616.708984375 191 616.708984375 201 L 616.708984375 221 Q 616.708984375 231 606.708984375 231 L 505 231 Q 495 231 495 221 L 495 201 Q 495 191 505 191 Z" opacity="0.2"/></g><g transform="translate(-110,-70) scale(1,1)"><path fill="#ffe2d8" stroke="none" d="M 498 184 L 599.708984375 184 Q 609.708984375 184 609.708984375 194 L 609.708984375 214 Q 609.708984375 224 599.708984375 224 L 498 224 Q 488 224 488 214 L 488 194 Q 488 184 498 184 Z"/></g><g transform="translate(-110,-70) scale(1,1)"><path fill="none" stroke="#000000" d="M 498 184 L 599.708984375 184 Q 609.708984375 184 609.708984375 194 L 609.708984375 214 Q 609.708984375 224 599.708984375 224 L 498 224 Q 488 224 488 214 L 488 194 Q 488 184 498 184 Z" stroke-miterlimit="10"/></g><g transform="translate(-110,-70) scale(1,1)"><g><path fill="none" stroke="none"/><text fill="#000000" stroke="none" font-family="Arial" font-size="13px" font-style="normal" font-weight="bold" text-decoration="none" x="534.76904296875" y="202">Help</text></g></g><g transform="translate(-110,-70) scale(1,1)"><path fill="#C0C0C0" stroke="none" d="M 601 87 L 702.708984375 87 Q 712.708984375 87 712.708984375 97 L 712.708984375 117 Q 712.708984375 127 702.708984375 127 L 601 127 Q 591 127 591 117 L 591 97 Q 591 87 601 87 Z" opacity="0.2"/></g><g transform="translate(-110,-70) scale(1,1)"><path fill="#ffe2d8" stroke="none" d="M 594 80 L 695.708984375 80 Q 705.708984375 80 705.708984375 90 L 705.708984375 110 Q 705.708984375 120 695.708984375 120 L 594 120 Q 584 120 584 110 L 584 90 Q 584 80 594 80 Z"/></g><g transform="translate(-110,-70) scale(1,1)"><path fill="none" stroke="#000000" d="M 594 80 L 695.708984375 80 Q 705.708984375 80 705.708984375 90 L 705.708984375 110 Q 705.708984375 120 695.708984375 120 L 594 120 Q 584 120 584 110 L 584 90 Q 584 80 594 80 Z" stroke-miterlimit="10"/></g><g transform="translate(-110,-70) scale(1,1)"><g><path fill="none" stroke="none"/><text fill="#000000" stroke="none" font-family="Arial" font-size="13px" font-style="normal" font-weight="bold" text-decoration="none" x="614.1572265625" y="98">Language</text></g></g><g transform="translate(-110,-70) scale(1,1)"><path fill="none" stroke="#000000" d="M 567 183 L 625 121" stroke-miterlimit="10"/></g><g transform="translate(-110,-70) scale(1,1)"><path fill="none" stroke="#000000" d="M 621.1313867055028 131.2972729971405 L 625 121 L 614.9832057416654 125.54574886967976" stroke-miterlimit="10"/></g><g transform="translate(-110,-70) scale(1,1)"><path fill="none" stroke="#000000" d="M 625 121 L 567 183" stroke-miterlimit="10"/></g><g transform="translate(-110,-70) scale(1,1)"><path fill="none" stroke="#000000" d="M 570.8686132944972 172.7027270028595 L 567 183 L 577.0167942583346 178.45425113032024" stroke-miterlimit="10"/></g><g transform="translate(-110,-70) scale(1,1)"><path fill="none" stroke="#000000" d="M 626 295 L 566 225" stroke-miterlimit="10"/></g><g transform="translate(-110,-70) scale(1,1)"><path fill="none" stroke="#000000" d="M 575.8098852776087 229.976560141318 L 566 225 L 569.4176769795506 235.45559582536788" stroke-miterlimit="10"/></g><g transform="translate(-110,-70) scale(1,1)"><path fill="none" stroke="#000000" d="M 566 225 L 626 295" stroke-miterlimit="10"/></g><g transform="translate(-110,-70) scale(1,1)"><path fill="none" stroke="#000000" d="M 616.1901147223913 290.02343985868197 L 626 295 L 622.5823230204494 284.5444041746321" stroke-miterlimit="10"/></g><g transform="translate(-110,-70) scale(1,1)"><path fill="none" stroke="#000000" d="M 662 295 L 722 225" stroke-miterlimit="10"/></g><g transform="translate(-110,-70) scale(1,1)"><path fill="none" stroke="#000000" d="M 718.5823230204494 235.45559582536788 L 722 225 L 712.1901147223913 229.976560141318" stroke-miterlimit="10"/></g><g transform="translate(-110,-70) scale(1,1)"><path fill="none" stroke="#000000" d="M 722 225 L 662 295" stroke-miterlimit="10"/></g><g transform="translate(-110,-70) scale(1,1)"><path fill="none" stroke="#000000" d="M 665.4176769795506 284.5444041746321 L 662 295 L 671.8098852776087 290.02343985868197" stroke-miterlimit="10"/></g><g transform="translate(-110,-70) scale(1,1)"><path fill="none" stroke="#000000" d="M 679 204 L 611 204" stroke-miterlimit="10"/></g><g transform="translate(-110,-70) scale(1,1)"><path fill="none" stroke="#000000" d="M 621.1626748576241 199.790482243984 L 611 204 L 621.1626748576241 208.209517756016" stroke-miterlimit="10"/></g><g transform="translate(-110,-70) scale(1,1)"><path fill="none" stroke="#000000" d="M 721 183 L 663 121" stroke-miterlimit="10"/></g><g transform="translate(-110,-70) scale(1,1)"><path fill="none" stroke="#000000" d="M 673.0167942583346 125.54574886967976 L 663 121 L 666.8686132944972 131.2972729971405" stroke-miterlimit="10"/></g><g transform="translate(-110,-70) scale(1,1)"><path fill="none" stroke="#000000" d="M 611 204 L 679 204" stroke-miterlimit="10"/></g><g transform="translate(-110,-70) scale(1,1)"><path fill="none" stroke="#000000" d="M 668.8373251423759 208.209517756016 L 679 204 L 668.8373251423758 199.790482243984" stroke-miterlimit="10"/></g><g transform="translate(-110,-70) scale(1,1)"><path fill="none" stroke="#000000" d="M 663 121 L 721 183" stroke-miterlimit="10"/></g><g transform="translate(-110,-70) scale(1,1)"><path fill="none" stroke="#000000" d="M 710.9832057416654 178.45425113032024 L 721 183 L 717.1313867055028 172.7027270028595" stroke-miterlimit="10"/></g><g transform="translate(-110,-70) scale(1,1)"><path fill="none" stroke="#000000" d="M 251 294 L 197 225" stroke-miterlimit="10"/></g><g transform="translate(-110,-70) scale(1,1)"><path fill="none" stroke="#000000" d="M 206.57835675999175 230.40879670336392 L 197 225 L 199.94832419060612 235.59751784462225" stroke-miterlimit="10"/></g><g transform="translate(-110,-70) scale(1,1)"><path fill="none" stroke="#000000" d="M 285 294 L 339 225" stroke-miterlimit="10"/></g><g transform="translate(-110,-70) scale(1,1)"><path fill="none" stroke="#000000" d="M 336.0516758093939 235.59751784462225 L 339 225 L 329.4216432400083 230.40879670336392" stroke-miterlimit="10"/></g><g transform="translate(-110,-70) scale(1,1)"><path fill="none" stroke="#000000" d="M 197 225 L 251 294" stroke-miterlimit="10"/></g><g transform="translate(-110,-70) scale(1,1)"><path fill="none" stroke="#000000" d="M 241.42164324000825 288.5912032966361 L 251 294 L 248.05167580939388 283.40248215537775" stroke-miterlimit="10"/></g><g transform="translate(-110,-70) scale(1,1)"><path fill="none" stroke="#000000" d="M 339 225 L 285 294" stroke-miterlimit="10"/></g><g transform="translate(-110,-70) scale(1,1)"><path fill="none" stroke="#000000" d="M 287.9483241906061 283.40248215537775 L 285 294 L 294.5783567599918 288.5912032966361" stroke-miterlimit="10"/></g><g transform="translate(-110,-70) scale(1,1)"><path fill="#C0C0C0" stroke="none" d="M 881 191 L 982.708984375 191 Q 992.708984375 191 992.708984375 201 L 992.708984375 221 Q 992.708984375 231 982.708984375 231 L 881 231 Q 871 231 871 221 L 871 201 Q 871 191 881 191 Z" opacity="0.2"/></g><g transform="translate(-110,-70) scale(1,1)"><path fill="#ebffd8" stroke="none" d="M 874 184 L 975.708984375 184 Q 985.708984375 184 985.708984375 194 L 985.708984375 214 Q 985.708984375 224 975.708984375 224 L 874 224 Q 864 224 864 214 L 864 194 Q 864 184 874 184 Z"/></g><g transform="translate(-110,-70) scale(1,1)"><path fill="none" stroke="#000000" d="M 874 184 L 975.708984375 184 Q 985.708984375 184 985.708984375 194 L 985.708984375 214 Q 985.708984375 224 975.708984375 224 L 874 224 Q 864 224 864 214 L 864 194 Q 864 184 874 184 Z" stroke-miterlimit="10"/></g><g transform="translate(-110,-70) scale(1,1)"><g><path fill="none" stroke="none"/><text fill="#000000" stroke="none" font-family="Arial" font-size="13px" font-style="normal" font-weight="bold" text-decoration="none" x="910.048583984375" y="202">Main</text></g></g><g transform="translate(-110,-70) scale(1,1)"><path fill="none" stroke="#000000" d="M 776 184 L 776 152 L 928 152 L 928 184" stroke-miterlimit="10"/></g><g transform="translate(-110,-70) scale(1,1)"><path fill="none" stroke="#000000" d="M 923.790482243984 173.83732514237585 L 928 184 L 932.209517756016 173.83732514237585" stroke-miterlimit="10"/></g><g transform="translate(-110,-70) scale(1,1)"><g><path fill="none" stroke="none"/><text fill="#000000" stroke="none" font-family="Arial" font-size="13px" font-style="normal" font-weight="normal" text-decoration="none" x="822.5" y="137">Log Out</text></g></g><g transform="translate(-110,-70) scale(1,1)"><path fill="none" stroke="#000000" d="M 776 224 L 776 256 L 928 256 L 928 224" stroke-miterlimit="10"/></g><g transform="translate(-110,-70) scale(1,1)"><path fill="none" stroke="#000000" d="M 932.209517756016 234.16267485762415 L 928 224 L 923.790482243984 234.16267485762415" stroke-miterlimit="10"/></g><g transform="translate(-110,-70) scale(1,1)"><g><path fill="none" stroke="none"/><text fill="#000000" stroke="none" font-family="Arial" font-size="13px" font-style="normal" font-weight="normal" text-decoration="none" x="831.792236328125" y="274">Delete</text><text fill="#000000" stroke="none" font-family="Arial" font-size="13px" font-style="normal" font-weight="normal" text-decoration="none" x="827.094970703125" y="287">Account</text></g></g></g></svg>