<svg xmlns="http://www.w3.org/2000/svg" xmlns:xlink="http://www.w3.org/1999/xlink" version="1.1" width="716" height="540"><defs/><g><g transform="translate(-86,-102) scale(1,1)"><rect fill="#C0C0C0" stroke="none" x="263" y="119" width="536" height="520" opacity="0.2"/></g><g transform="translate(-86,-102) scale(1,1)"><rect fill="#ffffff" stroke="none" x="256" y="112" width="536" height="520"/></g><g transform="translate(-86,-102) scale(1,1)"><path fill="none" stroke="#000000" d="M 256 112 L 792 112 L 792 632 L 256 632 L 256 112 Z Z" stroke-miterlimit="10"/></g><g transform="translate(-86,-102) scale(1,1)"><g><path fill="none" stroke="none"/><text fill="#000000" stroke="none" font-family="Arial" font-size="13px" font-style="normal" font-weight="bold" text-decoration="none" x="500.87548828125" y="130">System</text></g></g><g transform="translate(-86,-102) scale(1,1)"><path fill="#ffffff" stroke="none" d="M 148.17521946022728 185.68 C 148.17521946022728 180.886167936 152.06106178517274 177 156.8544921875 177 C 161.64792258982726 177 165.53376491477272 180.886167936 165.53376491477272 185.68 C 165.53376491477272 190.47383206400002 161.64792258982726 194.36 156.8544921875 194.36 C 152.06106178517274 194.36 148.17521946022728 190.47383206400002 148.17521946022728 185.68 Z"/></g><g transform="translate(-86,-102) scale(1,1)"><path fill="none" stroke="#000000" d="M 148.17521946022728 185.68 C 148.17521946022728 180.886167936 152.06106178517274 177 156.8544921875 177 C 161.64792258982726 177 165.53376491477272 180.886167936 165.53376491477272 185.68 C 165.53376491477272 190.47383206400002 161.64792258982726 194.36 156.8544921875 194.36 C 152.06106178517274 194.36 148.17521946022728 190.47383206400002 148.17521946022728 185.68 Z" stroke-miterlimit="10"/></g><g transform="translate(-86,-102) scale(1,1)"><path fill="none" stroke="#000000" d="M 156.8544921875 194.36 L 156.8544921875 211.64" stroke-miterlimit="10"/></g><g transform="translate(-86,-102) scale(1,1)"><path fill="none" stroke="#000000" d="M 147.66467400568183 200.84 L 166.04431036931817 200.84" stroke-miterlimit="10"/></g><g transform="translate(-86,-102) scale(1,1)"><path fill="none" stroke="#000000" d="M 156.8544921875 211.64 L 144.09085582386365 229" stroke-miterlimit="10"/></g><g transform="translate(-86,-102) scale(1,1)"><path fill="none" stroke="#000000" d="M 156.8544921875 211.64 L 169.61812855113635 229" stroke-miterlimit="10"/></g><g transform="translate(-86,-102) scale(1,1)"><g><path fill="none" stroke="none"/><text fill="#000000" stroke="none" font-family="Arial" font-size="13px" font-style="normal" font-weight="bold" text-decoration="none" x="100.5" y="248">Unregistered User</text></g></g><g transform="translate(-86,-102) scale(1,1)"><path fill="#ffffff" stroke="none" d="M 147.67521946022728 408.68 C 147.67521946022728 403.886167936 151.56106178517274 400 156.3544921875 400 C 161.14792258982726 400 165.03376491477272 403.886167936 165.03376491477272 408.68 C 165.03376491477272 413.473832064 161.14792258982726 417.36 156.3544921875 417.36 C 151.56106178517274 417.36 147.67521946022728 413.473832064 147.67521946022728 408.68 Z"/></g><g transform="translate(-86,-102) scale(1,1)"><path fill="none" stroke="#000000" d="M 147.67521946022728 408.68 C 147.67521946022728 403.886167936 151.56106178517274 400 156.3544921875 400 C 161.14792258982726 400 165.03376491477272 403.886167936 165.03376491477272 408.68 C 165.03376491477272 413.473832064 161.14792258982726 417.36 156.3544921875 417.36 C 151.56106178517274 417.36 147.67521946022728 413.473832064 147.67521946022728 408.68 Z" stroke-miterlimit="10"/></g><g transform="translate(-86,-102) scale(1,1)"><path fill="none" stroke="#000000" d="M 156.3544921875 417.36 L 156.3544921875 434.64" stroke-miterlimit="10"/></g><g transform="translate(-86,-102) scale(1,1)"><path fill="none" stroke="#000000" d="M 147.16467400568183 423.84 L 165.54431036931817 423.84" stroke-miterlimit="10"/></g><g transform="translate(-86,-102) scale(1,1)"><path fill="none" stroke="#000000" d="M 156.3544921875 434.64 L 143.59085582386365 452" stroke-miterlimit="10"/></g><g transform="translate(-86,-102) scale(1,1)"><path fill="none" stroke="#000000" d="M 156.3544921875 434.64 L 169.11812855113635 452" stroke-miterlimit="10"/></g><g transform="translate(-86,-102) scale(1,1)"><g><path fill="none" stroke="none"/><text fill="#000000" stroke="none" font-family="Arial" font-size="13px" font-style="normal" font-weight="bold" text-decoration="none" x="106.5" y="471">Registered User</text></g></g><g transform="translate(-86,-102) scale(1,1)"><path fill="#C0C0C0" stroke="none" d="M 442 209 C 442 194.6405952 476.0263552 183 518 183 C 559.9736448 183 594 194.6405952 594 209 C 594 223.3594048 559.9736448 235 518 235 C 476.0263552 235 442 223.3594048 442 209 Z" opacity="0.2"/></g><g transform="translate(-86,-102) scale(1,1)"><path fill="#ebffd8" stroke="none" d="M 435 202 C 435 187.6405952 469.0263552 176 511 176 C 552.9736448 176 587 187.6405952 587 202 C 587 216.3594048 552.9736448 228 511 228 C 469.0263552 228 435 216.3594048 435 202 Z"/></g><g transform="translate(-86,-102) scale(1,1)"><path fill="none" stroke="#000000" d="M 435 202 C 435 187.6405952 469.0263552 176 511 176 C 552.9736448 176 587 187.6405952 587 202 C 587 216.3594048 552.9736448 228 511 228 C 469.0263552 228 435 216.3594048 435 202 Z" stroke-miterlimit="10"/></g><g transform="translate(-86,-102) scale(1,1)"><g><path fill="none" stroke="none"/><text fill="#000000" stroke="none" font-family="Arial" font-size="13px" font-style="normal" font-weight="bold" text-decoration="none" x="462.9609375" y="201">Create Account</text><text fill="#000000" stroke="none" font-family="Arial" font-size="13px" font-style="normal" font-weight="bold" text-decoration="none" x="492.226806640625" y="214">[FR-1]</text></g></g><g transform="translate(-86,-102) scale(1,1)"><path fill="#C0C0C0" stroke="none" d="M 442 457 C 442 442.6405952 476.0263552 431 518 431 C 559.9736448 431 594 442.6405952 594 457 C 594 471.3594048 559.9736448 483 518 483 C 476.0263552 483 442 471.3594048 442 457 Z" opacity="0.2"/></g><g transform="translate(-86,-102) scale(1,1)"><path fill="#ebffd8" stroke="none" d="M 435 450 C 435 435.6405952 469.0263552 424 511 424 C 552.9736448 424 587 435.6405952 587 450 C 587 464.3594048 552.9736448 476 511 476 C 469.0263552 476 435 464.3594048 435 450 Z"/></g><g transform="translate(-86,-102) scale(1,1)"><path fill="none" stroke="#000000" d="M 435 450 C 435 435.6405952 469.0263552 424 511 424 C 552.9736448 424 587 435.6405952 587 450 C 587 464.3594048 552.9736448 476 511 476 C 469.0263552 476 435 464.3594048 435 450 Z" stroke-miterlimit="10"/></g><g transform="translate(-86,-102) scale(1,1)"><g><path fill="none" stroke="none"/><text fill="#000000" stroke="none" font-family="Arial" font-size="13px" font-style="normal" font-weight="bold" text-decoration="none" x="470.92724609375" y="455.5">Log In [FR-3]</text></g></g><g transform="translate(-86,-102) scale(1,1)"><path fill="#C0C0C0" stroke="none" d="M 311 569 C 311 554.6405952 353.9806592 543 407 543 C 460.0193408 543 503 554.6405952 503 569 C 503 583.3594048 460.0193408 595 407 595 C 353.9806592 595 311 583.3594048 311 569 Z" opacity="0.2"/></g><g transform="translate(-86,-102) scale(1,1)"><path fill="#ffd8ff" stroke="none" d="M 304 562 C 304 547.6405952 346.9806592 536 400 536 C 453.0193408 536 496 547.6405952 496 562 C 496 576.3594048 453.0193408 588 400 588 C 346.9806592 588 304 576.3594048 304 562 Z"/></g><g transform="translate(-86,-102) scale(1,1)"><path fill="none" stroke="#000000" d="M 304 562 C 304 547.6405952 346.9806592 536 400 536 C 453.0193408 536 496 547.6405952 496 562 C 496 576.3594048 453.0193408 588 400 588 C 346.9806592 588 304 576.3594048 304 562 Z" stroke-miterlimit="10"/></g><g transform="translate(-86,-102) scale(1,1)"><g><path fill="none" stroke="none"/><text fill="#000000" stroke="none" font-family="Arial" font-size="13px" font-style="normal" font-weight="bold" text-decoration="none" x="341.833251953125" y="561">Recover Password</text><text fill="#000000" stroke="none" font-family="Arial" font-size="13px" font-style="normal" font-weight="bold" text-decoration="none" x="381.226806640625" y="574">[FR-4]</text></g></g><g transform="translate(-86,-102) scale(1,1)"><path fill="none" stroke="#000000" d="M 218 200 L 435 200" stroke-miterlimit="10"/></g><g transform="translate(-86,-102) scale(1,1)"><path fill="none" stroke="#000000" d="M 211 447 L 435 447" stroke-miterlimit="10"/></g><g transform="translate(-86,-102) scale(1,1)"><path fill="none" stroke="#000000" d="M 427 535 L 484 477" stroke-miterlimit="10" stroke-dasharray="3"/></g><g transform="translate(-86,-102) scale(1,1)"><path fill="none" stroke="#000000" d="M 479.87900912981485 487.19889377569206 L 484 477 L 473.8743124610911 481.29772635987734" stroke-miterlimit="10"/></g><g transform="translate(-86,-102) scale(1,1)"><g><path fill="none" stroke="none"/><text fill="#000000" stroke="none" font-family="Arial" font-size="13px" font-style="normal" font-weight="normal" text-decoration="none" x="380.5" y="515">«extend»</text></g></g><g transform="translate(-86,-102) scale(1,1)"><path fill="#C0C0C0" stroke="none" d="M 599 343 C 599 325.3268864 636.6080768 311 683 311 C 729.3919232 311 767 325.3268864 767 343 C 767 360.6731136 729.3919232 375 683 375 C 636.6080768 375 599 360.6731136 599 343 Z" opacity="0.2"/></g><g transform="translate(-86,-102) scale(1,1)"><path fill="#ebffd8" stroke="none" d="M 592 336 C 592 318.3268864 629.6080768 304 676 304 C 722.3919232 304 760 318.3268864 760 336 C 760 353.6731136 722.3919232 368 676 368 C 629.6080768 368 592 353.6731136 592 336 Z"/></g><g transform="translate(-86,-102) scale(1,1)"><path fill="none" stroke="#000000" d="M 592 336 C 592 318.3268864 629.6080768 304 676 304 C 722.3919232 304 760 318.3268864 760 336 C 760 353.6731136 722.3919232 368 676 368 C 629.6080768 368 592 353.6731136 592 336 Z" stroke-miterlimit="10"/></g><g transform="translate(-86,-102) scale(1,1)"><g><path fill="none" stroke="none"/><text fill="#000000" stroke="none" font-family="Arial" font-size="13px" font-style="normal" font-weight="bold" text-decoration="none" x="629.398681640625" y="335">Access to Help</text><text fill="#000000" stroke="none" font-family="Arial" font-size="13px" font-style="normal" font-weight="bold" text-decoration="none" x="636.635009765625" y="348">page [FR-15]</text></g></g><g transform="translate(-86,-102) scale(1,1)"><path fill="#C0C0C0" stroke="none" d="M 527 569 C 527 554.6405952 569.9806592 543 623 543 C 676.0193408 543 719 554.6405952 719 569 C 719 583.3594048 676.0193408 595 623 595 C 569.9806592 595 527 583.3594048 527 569 Z" opacity="0.2"/></g><g transform="translate(-86,-102) scale(1,1)"><path fill="#ffd8ff" stroke="none" d="M 520 562 C 520 547.6405952 562.9806592 536 616 536 C 669.0193408 536 712 547.6405952 712 562 C 712 576.3594048 669.0193408 588 616 588 C 562.9806592 588 520 576.3594048 520 562 Z"/></g><g transform="translate(-86,-102) scale(1,1)"><path fill="none" stroke="#000000" d="M 520 562 C 520 547.6405952 562.9806592 536 616 536 C 669.0193408 536 712 547.6405952 712 562 C 712 576.3594048 669.0193408 588 616 588 C 562.9806592 588 520 576.3594048 520 562 Z" stroke-miterlimit="10"/></g><g transform="translate(-86,-102) scale(1,1)"><g><path fill="none" stroke="none"/><text fill="#000000" stroke="none" font-family="Arial" font-size="13px" font-style="normal" font-weight="bold" text-decoration="none" x="564.358642578125" y="561">Show error login</text><text fill="#000000" stroke="none" font-family="Arial" font-size="13px" font-style="normal" font-weight="bold" text-decoration="none" x="569.7890625" y="574">pop-up [FR-18]</text></g></g><g transform="translate(-86,-102) scale(1,1)"><path fill="none" stroke="#000000" d="M 219 230 L 591 316" stroke-miterlimit="10"/></g><g transform="translate(-86,-102) scale(1,1)"><path fill="none" stroke="#000000" d="M 212 427 L 591 353" stroke-miterlimit="10"/></g><g transform="translate(-86,-102) scale(1,1)"><path fill="none" stroke="#000000" d="M 591 535 L 536 477" stroke-miterlimit="10" stroke-dasharray="3"/></g><g transform="translate(-86,-102) scale(1,1)"><path fill="none" stroke="#000000" d="M 546.0473775160946 481.4777455319699 L 536 477 L 539.938324544688 487.2708130048554" stroke-miterlimit="10"/></g><g transform="translate(-86,-102) scale(1,1)"><g><path fill="none" stroke="none"/><text fill="#000000" stroke="none" font-family="Arial" font-size="13px" font-style="normal" font-weight="normal" text-decoration="none" x="580.5" y="514">«extend»</text></g></g><g transform="translate(-86,-102) scale(1,1)"><path fill="none" stroke="#000000" d="M 628 369 L 550 423" stroke-miterlimit="10" stroke-dasharray="3"/></g><g transform="translate(-86,-102) scale(1,1)"><path fill="none" stroke="#000000" d="M 555.9595724013654 413.7542714298503 L 550 423 L 560.7517714269408 420.67633668901465" stroke-miterlimit="10"/></g><g transform="translate(-86,-102) scale(1,1)"><g><path fill="none" stroke="none"/><text fill="#000000" stroke="none" font-family="Arial" font-size="13px" font-style="normal" font-weight="normal" text-decoration="none" x="591.5" y="403">«extend»</text></g></g><g transform="translate(-86,-102) scale(1,1)"><path fill="none" stroke="#000000" d="M 635 303 L 544 229" stroke-miterlimit="10" stroke-dasharray="3"/></g><g transform="translate(-86,-102) scale(1,1)"><path fill="none" stroke="#000000" d="M 554.5405849960673 232.14580163721132 L 544 229 L 549.2289014584525 238.6777367983322" stroke-miterlimit="10"/></g><g transform="translate(-86,-102) scale(1,1)"><g><path fill="none" stroke="none"/><text fill="#000000" stroke="none" font-family="Arial" font-size="13px" font-style="normal" font-weight="normal" text-decoration="none" x="628.5" y="286">«extend»</text></g></g><g transform="translate(-86,-102) scale(1,1)"><path fill="#C0C0C0" stroke="none" d="M 295 338.5 C 295 318.8938896 339.77152 303 395 303 C 450.22848 303 495 318.8938896 495 338.5 C 495 358.1061104 450.22848 374 395 374 C 339.77152 374 295 358.1061104 295 338.5 Z" opacity="0.2"/></g><g transform="translate(-86,-102) scale(1,1)"><path fill="#ebffd8" stroke="none" d="M 288 331.5 C 288 311.8938896 332.77152 296 388 296 C 443.22848 296 488 311.8938896 488 331.5 C 488 351.1061104 443.22848 367 388 367 C 332.77152 367 288 351.1061104 288 331.5 Z"/></g><g transform="translate(-86,-102) scale(1,1)"><path fill="none" stroke="#000000" d="M 288 331.5 C 288 311.8938896 332.77152 296 388 296 C 443.22848 296 488 311.8938896 488 331.5 C 488 351.1061104 443.22848 367 388 367 C 332.77152 367 288 351.1061104 288 331.5 Z" stroke-miterlimit="10"/></g><g transform="translate(-86,-102) scale(1,1)"><g><path fill="none" stroke="none"/><text fill="#000000" stroke="none" font-family="Arial" font-size="13px" font-style="normal" font-weight="bold" text-decoration="none" x="325.885009765625" y="324">Change language of</text><text fill="#000000" stroke="none" font-family="Arial" font-size="13px" font-style="normal" font-weight="bold" text-decoration="none" x="342.135009765625" y="337">the application</text><text fill="#000000" stroke="none" font-family="Arial" font-size="13px" font-style="normal" font-weight="bold" text-decoration="none" x="365.61181640625" y="350">[FR-17]</text></g></g><g transform="translate(-86,-102) scale(1,1)"><path fill="none" stroke="#000000" d="M 219 246 L 316 295" stroke-miterlimit="10"/></g><g transform="translate(-86,-102) scale(1,1)"><path fill="none" stroke="#000000" d="M 212 412 L 308 368" stroke-miterlimit="10"/></g><g transform="translate(-86,-102) scale(1,1)"><path fill="none" stroke="#000000" d="M 489 333 L 591 335" stroke-miterlimit="10" stroke-dasharray="3"/></g><g transform="translate(-86,-102) scale(1,1)"><path fill="none" stroke="#000000" d="M 580.7567544868664 339.00947893842437 L 591 335 L 580.9218018899201 330.5920613826891" stroke-miterlimit="10"/></g><g transform="translate(-86,-102) scale(1,1)"><g><path fill="none" stroke="none"/><text fill="#000000" stroke="none" font-family="Arial" font-size="13px" font-style="normal" font-weight="normal" text-decoration="none" x="511.5" y="330">«extend»</text></g></g></g></svg>