<svg xmlns="http://www.w3.org/2000/svg" xmlns:xlink="http://www.w3.org/1999/xlink" version="1.1" width="764" height="340"><defs/><g><g transform="translate(-38,-70) scale(1,1)"><rect fill="#C0C0C0" stroke="none" x="223" y="87" width="576" height="320" opacity="0.2"/></g><g transform="translate(-38,-70) scale(1,1)"><rect fill="#ffffff" stroke="none" x="216" y="80" width="576" height="320"/></g><g transform="translate(-38,-70) scale(1,1)"><path fill="none" stroke="#000000" d="M 216 80 L 792 80 L 792 400 L 216 400 L 216 80 Z Z" stroke-miterlimit="10"/></g><g transform="translate(-38,-70) scale(1,1)"><g><path fill="none" stroke="none"/><text fill="#000000" stroke="none" font-family="Arial" font-size="13px" font-style="normal" font-weight="bold" text-decoration="none" x="480.87548828125" y="98">System</text></g></g><g transform="translate(-38,-70) scale(1,1)"><path fill="#C0C0C0" stroke="none" d="M 295 322.5 C 295 302.8938896 336.1897984 287 387 287 C 437.8102016 287 479 302.8938896 479 322.5 C 479 342.1061104 437.8102016 358 387 358 C 336.1897984 358 295 342.1061104 295 322.5 Z" opacity="0.2"/></g><g transform="translate(-38,-70) scale(1,1)"><path fill="#ebffd8" stroke="none" d="M 288 315.5 C 288 295.8938896 329.1897984 280 380 280 C 430.8102016 280 472 295.8938896 472 315.5 C 472 335.1061104 430.8102016 351 380 351 C 329.1897984 351 288 335.1061104 288 315.5 Z"/></g><g transform="translate(-38,-70) scale(1,1)"><path fill="none" stroke="#000000" d="M 288 315.5 C 288 295.8938896 329.1897984 280 380 280 C 430.8102016 280 472 295.8938896 472 315.5 C 472 335.1061104 430.8102016 351 380 351 C 329.1897984 351 288 335.1061104 288 315.5 Z" stroke-miterlimit="10"/></g><g transform="translate(-38,-70) scale(1,1)"><g><path fill="none" stroke="none"/><text fill="#000000" stroke="none" font-family="Arial" font-size="13px" font-style="normal" font-weight="bold" text-decoration="none" x="349.2900390625" y="308">Access to</text><text fill="#000000" stroke="none" font-family="Arial" font-size="13px" font-style="normal" font-weight="bold" text-decoration="none" x="337.397705078125" y="321">Configuration</text><text fill="#000000" stroke="none" font-family="Arial" font-size="13px" font-style="normal" font-weight="bold" text-decoration="none" x="340.635009765625" y="334">page [FR-20]</text></g></g><g transform="translate(-38,-70) scale(1,1)"><path fill="#ffffff" stroke="none" d="M 99.67521946022727 281.68 C 99.67521946022727 276.886167936 103.56106178517273 273 108.3544921875 273 C 113.14792258982727 273 117.03376491477273 276.886167936 117.03376491477273 281.68 C 117.03376491477273 286.473832064 113.14792258982727 290.36 108.3544921875 290.36 C 103.56106178517273 290.36 99.67521946022727 286.473832064 99.67521946022727 281.68 Z"/></g><g transform="translate(-38,-70) scale(1,1)"><path fill="none" stroke="#000000" d="M 99.67521946022727 281.68 C 99.67521946022727 276.886167936 103.56106178517273 273 108.3544921875 273 C 113.14792258982727 273 117.03376491477273 276.886167936 117.03376491477273 281.68 C 117.03376491477273 286.473832064 113.14792258982727 290.36 108.3544921875 290.36 C 103.56106178517273 290.36 99.67521946022727 286.473832064 99.67521946022727 281.68 Z" stroke-miterlimit="10"/></g><g transform="translate(-38,-70) scale(1,1)"><path fill="none" stroke="#000000" d="M 108.3544921875 290.36 L 108.3544921875 307.64" stroke-miterlimit="10"/></g><g transform="translate(-38,-70) scale(1,1)"><path fill="none" stroke="#000000" d="M 99.16467400568182 296.84 L 117.54431036931818 296.84" stroke-miterlimit="10"/></g><g transform="translate(-38,-70) scale(1,1)"><path fill="none" stroke="#000000" d="M 108.3544921875 307.64 L 95.59085582386363 325" stroke-miterlimit="10"/></g><g transform="translate(-38,-70) scale(1,1)"><path fill="none" stroke="#000000" d="M 108.3544921875 307.64 L 121.11812855113637 325" stroke-miterlimit="10"/></g><g transform="translate(-38,-70) scale(1,1)"><g><path fill="none" stroke="none"/><text fill="#000000" stroke="none" font-family="Arial" font-size="13px" font-style="normal" font-weight="bold" text-decoration="none" x="58.5" y="344">Registered User</text></g></g><g transform="translate(-38,-70) scale(1,1)"><path fill="#ffffff" stroke="none" d="M 100.17521946022727 145.68 C 100.17521946022727 140.886167936 104.06106178517273 137 108.8544921875 137 C 113.64792258982727 137 117.53376491477273 140.886167936 117.53376491477273 145.68 C 117.53376491477273 150.47383206400002 113.64792258982727 154.36 108.8544921875 154.36 C 104.06106178517273 154.36 100.17521946022727 150.47383206400002 100.17521946022727 145.68 Z"/></g><g transform="translate(-38,-70) scale(1,1)"><path fill="none" stroke="#000000" d="M 100.17521946022727 145.68 C 100.17521946022727 140.886167936 104.06106178517273 137 108.8544921875 137 C 113.64792258982727 137 117.53376491477273 140.886167936 117.53376491477273 145.68 C 117.53376491477273 150.47383206400002 113.64792258982727 154.36 108.8544921875 154.36 C 104.06106178517273 154.36 100.17521946022727 150.47383206400002 100.17521946022727 145.68 Z" stroke-miterlimit="10"/></g><g transform="translate(-38,-70) scale(1,1)"><path fill="none" stroke="#000000" d="M 108.8544921875 154.36 L 108.8544921875 171.64" stroke-miterlimit="10"/></g><g transform="translate(-38,-70) scale(1,1)"><path fill="none" stroke="#000000" d="M 99.66467400568182 160.84 L 118.04431036931818 160.84" stroke-miterlimit="10"/></g><g transform="translate(-38,-70) scale(1,1)"><path fill="none" stroke="#000000" d="M 108.8544921875 171.64 L 96.09085582386363 189" stroke-miterlimit="10"/></g><g transform="translate(-38,-70) scale(1,1)"><path fill="none" stroke="#000000" d="M 108.8544921875 171.64 L 121.61812855113637 189" stroke-miterlimit="10"/></g><g transform="translate(-38,-70) scale(1,1)"><g><path fill="none" stroke="none"/><text fill="#000000" stroke="none" font-family="Arial" font-size="13px" font-style="normal" font-weight="bold" text-decoration="none" x="52.5" y="208">Unregistered User</text></g></g><g transform="translate(-38,-70) scale(1,1)"><path fill="#C0C0C0" stroke="none" d="M 286 186.5 C 286 166.8938896 332.5623808 151 390 151 C 447.4376192 151 494 166.8938896 494 186.5 C 494 206.1061104 447.4376192 222 390 222 C 332.5623808 222 286 206.1061104 286 186.5 Z" opacity="0.2"/></g><g transform="translate(-38,-70) scale(1,1)"><path fill="#ebffd8" stroke="none" d="M 279 179.5 C 279 159.8938896 325.5623808 144 383 144 C 440.4376192 144 487 159.8938896 487 179.5 C 487 199.1061104 440.4376192 215 383 215 C 325.5623808 215 279 199.1061104 279 179.5 Z"/></g><g transform="translate(-38,-70) scale(1,1)"><path fill="none" stroke="#000000" d="M 279 179.5 C 279 159.8938896 325.5623808 144 383 144 C 440.4376192 144 487 159.8938896 487 179.5 C 487 199.1061104 440.4376192 215 383 215 C 325.5623808 215 279 199.1061104 279 179.5 Z" stroke-miterlimit="10"/></g><g transform="translate(-38,-70) scale(1,1)"><g><path fill="none" stroke="none"/><text fill="#000000" stroke="none" font-family="Arial" font-size="13px" font-style="normal" font-weight="bold" text-decoration="none" x="320.885009765625" y="172">Change language of</text><text fill="#000000" stroke="none" font-family="Arial" font-size="13px" font-style="normal" font-weight="bold" text-decoration="none" x="337.135009765625" y="185">the application</text><text fill="#000000" stroke="none" font-family="Arial" font-size="13px" font-style="normal" font-weight="bold" text-decoration="none" x="360.61181640625" y="198">[FR-17]</text></g></g><g transform="translate(-38,-70) scale(1,1)"><path fill="none" stroke="#000000" d="M 382 216 L 381 279" stroke-miterlimit="10" stroke-dasharray="3"/></g><g transform="translate(-38,-70) scale(1,1)"><path fill="none" stroke="#000000" d="M 376.9523044249756 268.7717958305513 L 381 279 L 385.37027953829914 268.9054144831438" stroke-miterlimit="10"/></g><g transform="translate(-38,-70) scale(1,1)"><g><path fill="none" stroke="none"/><text fill="#000000" stroke="none" font-family="Arial" font-size="13px" font-style="normal" font-weight="normal" text-decoration="none" x="383.5" y="251">«extend»</text></g></g><g transform="translate(-38,-70) scale(1,1)"><path fill="none" stroke="#000000" d="M 163 314 L 288 314" stroke-miterlimit="10"/></g><g transform="translate(-38,-70) scale(1,1)"><path fill="none" stroke="#000000" d="M 170 177 L 279 177" stroke-miterlimit="10"/></g><g transform="translate(-38,-70) scale(1,1)"><path fill="none" stroke="#000000" d="M 164 284 L 306 216" stroke-miterlimit="10"/></g><g transform="translate(-38,-70) scale(1,1)"><path fill="#C0C0C0" stroke="none" d="M 559 185 C 559 170.6405952 598.3989376 159 647 159 C 695.6010624 159 735 170.6405952 735 185 C 735 199.3594048 695.6010624 211 647 211 C 598.3989376 211 559 199.3594048 559 185 Z" opacity="0.2"/></g><g transform="translate(-38,-70) scale(1,1)"><path fill="#ffd8ff" stroke="none" d="M 552 178 C 552 163.6405952 591.3989376 152 640 152 C 688.6010624 152 728 163.6405952 728 178 C 728 192.3594048 688.6010624 204 640 204 C 591.3989376 204 552 192.3594048 552 178 Z"/></g><g transform="translate(-38,-70) scale(1,1)"><path fill="none" stroke="#000000" d="M 552 178 C 552 163.6405952 591.3989376 152 640 152 C 688.6010624 152 728 163.6405952 728 178 C 728 192.3594048 688.6010624 204 640 204 C 591.3989376 204 552 192.3594048 552 178 Z" stroke-miterlimit="10"/></g><g transform="translate(-38,-70) scale(1,1)"><g><path fill="none" stroke="none"/><text fill="#000000" stroke="none" font-family="Arial" font-size="13px" font-style="normal" font-weight="bold" text-decoration="none" x="592.6845703125" y="177">Delete Account</text><text fill="#000000" stroke="none" font-family="Arial" font-size="13px" font-style="normal" font-weight="bold" text-decoration="none" x="621.226806640625" y="190">[FR-2]</text></g></g><g transform="translate(-38,-70) scale(1,1)"><path fill="none" stroke="#000000" d="M 589 205 L 448 279" stroke-miterlimit="10" stroke-dasharray="3"/></g><g transform="translate(-38,-70) scale(1,1)"><path fill="none" stroke="#000000" d="M 455.0424591231729 270.549924882083 L 448 279 L 458.9548760196394 278.0046651848098" stroke-miterlimit="10"/></g><g transform="translate(-38,-70) scale(1,1)"><g><path fill="none" stroke="none"/><text fill="#000000" stroke="none" font-family="Arial" font-size="13px" font-style="normal" font-weight="normal" text-decoration="none" x="505.5" y="273">«extend»</text></g></g><g transform="translate(-38,-70) scale(1,1)"><path fill="#C0C0C0" stroke="none" d="M 583 321 C 583 306.6405952 614.5639216 295 653.5 295 C 692.4360784 295 724 306.6405952 724 321 C 724 335.3594048 692.4360784 347 653.5 347 C 614.5639216 347 583 335.3594048 583 321 Z" opacity="0.2"/></g><g transform="translate(-38,-70) scale(1,1)"><path fill="#ffd8ff" stroke="none" d="M 576 314 C 576 299.6405952 607.5639216 288 646.5 288 C 685.4360784 288 717 299.6405952 717 314 C 717 328.3594048 685.4360784 340 646.5 340 C 607.5639216 340 576 328.3594048 576 314 Z"/></g><g transform="translate(-38,-70) scale(1,1)"><path fill="none" stroke="#000000" d="M 576 314 C 576 299.6405952 607.5639216 288 646.5 288 C 685.4360784 288 717 299.6405952 717 314 C 717 328.3594048 685.4360784 340 646.5 340 C 607.5639216 340 576 328.3594048 576 314 Z" stroke-miterlimit="10"/></g><g transform="translate(-38,-70) scale(1,1)"><g><path fill="none" stroke="none"/><text fill="#000000" stroke="none" font-family="Arial" font-size="13px" font-style="normal" font-weight="bold" text-decoration="none" x="621.591796875" y="313">Log Out</text><text fill="#000000" stroke="none" font-family="Arial" font-size="13px" font-style="normal" font-weight="bold" text-decoration="none" x="627.726806640625" y="326">[FR-5]</text></g></g><g transform="translate(-38,-70) scale(1,1)"><path fill="none" stroke="#000000" d="M 575 314 L 473 315" stroke-miterlimit="10" stroke-dasharray="3"/></g><g transform="translate(-38,-70) scale(1,1)"><path fill="none" stroke="#000000" d="M 483.12091869183536 310.6910552529352 L 473 315 L 483.20345428924213 319.1096861884268" stroke-miterlimit="10"/></g><g transform="translate(-38,-70) scale(1,1)"><g><path fill="none" stroke="none"/><text fill="#000000" stroke="none" font-family="Arial" font-size="13px" font-style="normal" font-weight="normal" text-decoration="none" x="497.5" y="348">«extend»</text></g></g></g></svg>