<svg xmlns="http://www.w3.org/2000/svg" xmlns:xlink="http://www.w3.org/1999/xlink" version="1.1" width="764" height="564"><defs/><g><g transform="translate(-46,-6) scale(1,1)"><rect fill="#C0C0C0" stroke="none" x="191" y="23" width="616" height="544" opacity="0.2"/></g><g transform="translate(-46,-6) scale(1,1)"><rect fill="#ffffff" stroke="none" x="184" y="16" width="616" height="544"/></g><g transform="translate(-46,-6) scale(1,1)"><path fill="none" stroke="#000000" d="M 184 16 L 800 16 L 800 560 L 184 560 L 184 16 Z Z" stroke-miterlimit="10"/></g><g transform="translate(-46,-6) scale(1,1)"><g><path fill="none" stroke="none"/><text fill="#000000" stroke="none" font-family="Arial" font-size="13px" font-style="normal" font-weight="bold" text-decoration="none" x="468.87548828125" y="34">System</text></g></g><g transform="translate(-46,-6) scale(1,1)"><path fill="#ffffff" stroke="none" d="M 101.67521946022727 185.68 C 101.67521946022727 180.886167936 105.56106178517273 177 110.3544921875 177 C 115.14792258982727 177 119.03376491477273 180.886167936 119.03376491477273 185.68 C 119.03376491477273 190.47383206400002 115.14792258982727 194.36 110.3544921875 194.36 C 105.56106178517273 194.36 101.67521946022727 190.47383206400002 101.67521946022727 185.68 Z"/></g><g transform="translate(-46,-6) scale(1,1)"><path fill="none" stroke="#000000" d="M 101.67521946022727 185.68 C 101.67521946022727 180.886167936 105.56106178517273 177 110.3544921875 177 C 115.14792258982727 177 119.03376491477273 180.886167936 119.03376491477273 185.68 C 119.03376491477273 190.47383206400002 115.14792258982727 194.36 110.3544921875 194.36 C 105.56106178517273 194.36 101.67521946022727 190.47383206400002 101.67521946022727 185.68 Z" stroke-miterlimit="10"/></g><g transform="translate(-46,-6) scale(1,1)"><path fill="none" stroke="#000000" d="M 110.3544921875 194.36 L 110.3544921875 211.64" stroke-miterlimit="10"/></g><g transform="translate(-46,-6) scale(1,1)"><path fill="none" stroke="#000000" d="M 101.16467400568182 200.84 L 119.54431036931818 200.84" stroke-miterlimit="10"/></g><g transform="translate(-46,-6) scale(1,1)"><path fill="none" stroke="#000000" d="M 110.3544921875 211.64 L 97.59085582386363 229" stroke-miterlimit="10"/></g><g transform="translate(-46,-6) scale(1,1)"><path fill="none" stroke="#000000" d="M 110.3544921875 211.64 L 123.11812855113637 229" stroke-miterlimit="10"/></g><g transform="translate(-46,-6) scale(1,1)"><g><path fill="none" stroke="none"/><text fill="#000000" stroke="none" font-family="Arial" font-size="13px" font-style="normal" font-weight="bold" text-decoration="none" x="60.5" y="248">Registered User</text></g></g><g transform="translate(-46,-6) scale(1,1)"><path fill="#C0C0C0" stroke="none" d="M 230 185 C 230 170.6405952 281.93496319999997 159 346 159 C 410.06503680000003 159 462 170.6405952 462 185 C 462 199.3594048 410.06503680000003 211 346 211 C 281.93496319999997 211 230 199.3594048 230 185 Z" opacity="0.2"/></g><g transform="translate(-46,-6) scale(1,1)"><path fill="#ebffd8" stroke="none" d="M 223 178 C 223 163.6405952 274.93496319999997 152 339 152 C 403.06503680000003 152 455 163.6405952 455 178 C 455 192.3594048 403.06503680000003 204 339 204 C 274.93496319999997 204 223 192.3594048 223 178 Z"/></g><g transform="translate(-46,-6) scale(1,1)"><path fill="none" stroke="#000000" d="M 223 178 C 223 163.6405952 274.93496319999997 152 339 152 C 403.06503680000003 152 455 163.6405952 455 178 C 455 192.3594048 403.06503680000003 204 339 204 C 274.93496319999997 204 223 192.3594048 223 178 Z" stroke-miterlimit="10"/></g><g transform="translate(-46,-6) scale(1,1)"><g><path fill="none" stroke="none"/><text fill="#000000" stroke="none" font-family="Arial" font-size="13px" font-style="normal" font-weight="bold" text-decoration="none" x="267.83642578125" y="177">Enter money exchange</text><text fill="#000000" stroke="none" font-family="Arial" font-size="13px" font-style="normal" font-weight="bold" text-decoration="none" x="320.226806640625" y="190">[FR-6]</text></g></g><g transform="translate(-46,-6) scale(1,1)"><path fill="none" stroke="#000000" d="M 166 206 L 222 197" stroke-miterlimit="10"/></g><g transform="translate(-46,-6) scale(1,1)"><path fill="#C0C0C0" stroke="none" d="M 242 330.5 C 242 310.8938896 288.5623808 295 346 295 C 403.4376192 295 450 310.8938896 450 330.5 C 450 350.1061104 403.4376192 366 346 366 C 288.5623808 366 242 350.1061104 242 330.5 Z" opacity="0.2"/></g><g transform="translate(-46,-6) scale(1,1)"><path fill="#ebffd8" stroke="none" d="M 235 323.5 C 235 303.8938896 281.5623808 288 339 288 C 396.4376192 288 443 303.8938896 443 323.5 C 443 343.1061104 396.4376192 359 339 359 C 281.5623808 359 235 343.1061104 235 323.5 Z"/></g><g transform="translate(-46,-6) scale(1,1)"><path fill="none" stroke="#000000" d="M 235 323.5 C 235 303.8938896 281.5623808 288 339 288 C 396.4376192 288 443 303.8938896 443 323.5 C 443 343.1061104 396.4376192 359 339 359 C 281.5623808 359 235 343.1061104 235 323.5 Z" stroke-miterlimit="10"/></g><g transform="translate(-46,-6) scale(1,1)"><g><path fill="none" stroke="none"/><text fill="#000000" stroke="none" font-family="Arial" font-size="13px" font-style="normal" font-weight="bold" text-decoration="none" x="293.128662109375" y="316">Read record of</text><text fill="#000000" stroke="none" font-family="Arial" font-size="13px" font-style="normal" font-weight="bold" text-decoration="none" x="286.25732421875" y="329">money exchange</text><text fill="#000000" stroke="none" font-family="Arial" font-size="13px" font-style="normal" font-weight="bold" text-decoration="none" x="320.226806640625" y="342">[FR-9]</text></g></g><g transform="translate(-46,-6) scale(1,1)"><path fill="none" stroke="#000000" d="M 166 241 L 263 287" stroke-miterlimit="10"/></g><g transform="translate(-46,-6) scale(1,1)"><path fill="#C0C0C0" stroke="none" d="M 519 498.5 C 519 478.8938896 565.5623808 463 623 463 C 680.4376192 463 727 478.8938896 727 498.5 C 727 518.1061104 680.4376192 534 623 534 C 565.5623808 534 519 518.1061104 519 498.5 Z" opacity="0.2"/></g><g transform="translate(-46,-6) scale(1,1)"><path fill="#ffd8ff" stroke="none" d="M 512 491.5 C 512 471.8938896 558.5623808 456 616 456 C 673.4376192 456 720 471.8938896 720 491.5 C 720 511.1061104 673.4376192 527 616 527 C 558.5623808 527 512 511.1061104 512 491.5 Z"/></g><g transform="translate(-46,-6) scale(1,1)"><path fill="none" stroke="#000000" d="M 512 491.5 C 512 471.8938896 558.5623808 456 616 456 C 673.4376192 456 720 471.8938896 720 491.5 C 720 511.1061104 673.4376192 527 616 527 C 558.5623808 527 512 511.1061104 512 491.5 Z" stroke-miterlimit="10"/></g><g transform="translate(-46,-6) scale(1,1)"><g><path fill="none" stroke="none"/><text fill="#000000" stroke="none" font-family="Arial" font-size="13px" font-style="normal" font-weight="bold" text-decoration="none" x="561.102294921875" y="484">Delete introduced</text><text fill="#000000" stroke="none" font-family="Arial" font-size="13px" font-style="normal" font-weight="bold" text-decoration="none" x="563.25732421875" y="497">money exchange</text><text fill="#000000" stroke="none" font-family="Arial" font-size="13px" font-style="normal" font-weight="bold" text-decoration="none" x="593.970458984375" y="510">[FR-11]</text></g></g><g transform="translate(-46,-6) scale(1,1)"><path fill="#C0C0C0" stroke="none" d="M 246 490.5 C 246 470.8938896 290.77152 455 346 455 C 401.22848 455 446 470.8938896 446 490.5 C 446 510.1061104 401.22848 526 346 526 C 290.77152 526 246 510.1061104 246 490.5 Z" opacity="0.2"/></g><g transform="translate(-46,-6) scale(1,1)"><path fill="#ffd8ff" stroke="none" d="M 239 483.5 C 239 463.8938896 283.77152 448 339 448 C 394.22848 448 439 463.8938896 439 483.5 C 439 503.1061104 394.22848 519 339 519 C 283.77152 519 239 503.1061104 239 483.5 Z"/></g><g transform="translate(-46,-6) scale(1,1)"><path fill="none" stroke="#000000" d="M 239 483.5 C 239 463.8938896 283.77152 448 339 448 C 394.22848 448 439 463.8938896 439 483.5 C 439 503.1061104 394.22848 519 339 519 C 283.77152 519 239 503.1061104 239 483.5 Z" stroke-miterlimit="10"/></g><g transform="translate(-46,-6) scale(1,1)"><g><path fill="none" stroke="none"/><text fill="#000000" stroke="none" font-family="Arial" font-size="13px" font-style="normal" font-weight="bold" text-decoration="none" x="291.33544921875" y="476">Edit introduced</text><text fill="#000000" stroke="none" font-family="Arial" font-size="13px" font-style="normal" font-weight="bold" text-decoration="none" x="286.25732421875" y="489">money exchange</text><text fill="#000000" stroke="none" font-family="Arial" font-size="13px" font-style="normal" font-weight="bold" text-decoration="none" x="316.61181640625" y="502">[FR-10]</text></g></g><g transform="translate(-46,-6) scale(1,1)"><path fill="none" stroke="#000000" d="M 339 447 L 339 360" stroke-miterlimit="10" stroke-dasharray="3"/></g><g transform="translate(-46,-6) scale(1,1)"><path fill="none" stroke="#000000" d="M 343.209517756016 370.16267485762415 L 339 360 L 334.790482243984 370.16267485762415" stroke-miterlimit="10"/></g><g transform="translate(-46,-6) scale(1,1)"><g><path fill="none" stroke="none"/><text fill="#000000" stroke="none" font-family="Arial" font-size="13px" font-style="normal" font-weight="normal" text-decoration="none" x="282.5" y="407">«extend»</text></g></g><g transform="translate(-46,-6) scale(1,1)"><path fill="none" stroke="#000000" d="M 557 455 L 400 360" stroke-miterlimit="10" stroke-dasharray="3"/></g><g transform="translate(-46,-6) scale(1,1)"><path fill="none" stroke="#000000" d="M 410.87407241579433 361.65968343248386 L 400 360 L 406.5155569345894 368.86270375405405" stroke-miterlimit="10"/></g><g transform="translate(-46,-6) scale(1,1)"><g><path fill="none" stroke="none"/><text fill="#000000" stroke="none" font-family="Arial" font-size="13px" font-style="normal" font-weight="normal" text-decoration="none" x="482.5" y="399">«extend»</text></g></g><g transform="translate(-46,-6) scale(1,1)"><path fill="#C0C0C0" stroke="none" d="M 543 66.5 C 543 46.893889599999994 585.9806592 31 639 31 C 692.0193408 31 735 46.893889599999994 735 66.5 C 735 86.1061104 692.0193408 102 639 102 C 585.9806592 102 543 86.1061104 543 66.5 Z" opacity="0.2"/></g><g transform="translate(-46,-6) scale(1,1)"><path fill="#ffd8ff" stroke="none" d="M 536 59.5 C 536 39.893889599999994 578.9806592 24 632 24 C 685.0193408 24 728 39.893889599999994 728 59.5 C 728 79.1061104 685.0193408 95 632 95 C 578.9806592 95 536 79.1061104 536 59.5 Z"/></g><g transform="translate(-46,-6) scale(1,1)"><path fill="none" stroke="#000000" d="M 536 59.5 C 536 39.893889599999994 578.9806592 24 632 24 C 685.0193408 24 728 39.893889599999994 728 59.5 C 728 79.1061104 685.0193408 95 632 95 C 578.9806592 95 536 79.1061104 536 59.5 Z" stroke-miterlimit="10"/></g><g transform="translate(-46,-6) scale(1,1)"><g><path fill="none" stroke="none"/><text fill="#000000" stroke="none" font-family="Arial" font-size="13px" font-style="normal" font-weight="bold" text-decoration="none" x="589.023193359375" y="52">Define type of</text><text fill="#000000" stroke="none" font-family="Arial" font-size="13px" font-style="normal" font-weight="bold" text-decoration="none" x="579.25732421875" y="65">money exchange</text><text fill="#000000" stroke="none" font-family="Arial" font-size="13px" font-style="normal" font-weight="bold" text-decoration="none" x="613.226806640625" y="78">[FR-7]</text></g></g><g transform="translate(-46,-6) scale(1,1)"><path fill="#C0C0C0" stroke="none" d="M 551 154.5 C 551 134.8938896 592.1897984 119 643 119 C 693.8102016 119 735 134.8938896 735 154.5 C 735 174.1061104 693.8102016 190 643 190 C 592.1897984 190 551 174.1061104 551 154.5 Z" opacity="0.2"/></g><g transform="translate(-46,-6) scale(1,1)"><path fill="#ffd8ff" stroke="none" d="M 544 147.5 C 544 127.8938896 585.1897984 112 636 112 C 686.8102016 112 728 127.8938896 728 147.5 C 728 167.1061104 686.8102016 183 636 183 C 585.1897984 183 544 167.1061104 544 147.5 Z"/></g><g transform="translate(-46,-6) scale(1,1)"><path fill="none" stroke="#000000" d="M 544 147.5 C 544 127.8938896 585.1897984 112 636 112 C 686.8102016 112 728 127.8938896 728 147.5 C 728 167.1061104 686.8102016 183 636 183 C 585.1897984 183 544 167.1061104 544 147.5 Z" stroke-miterlimit="10"/></g><g transform="translate(-46,-6) scale(1,1)"><g><path fill="none" stroke="none"/><text fill="#000000" stroke="none" font-family="Arial" font-size="13px" font-style="normal" font-weight="bold" text-decoration="none" x="587.602294921875" y="140">Define scope of</text><text fill="#000000" stroke="none" font-family="Arial" font-size="13px" font-style="normal" font-weight="bold" text-decoration="none" x="583.25732421875" y="153">money exchange</text><text fill="#000000" stroke="none" font-family="Arial" font-size="13px" font-style="normal" font-weight="bold" text-decoration="none" x="617.226806640625" y="166">[FR-8]</text></g></g><g transform="translate(-46,-6) scale(1,1)"><path fill="none" stroke="#000000" d="M 405 151 L 541 96" stroke-miterlimit="10" stroke-dasharray="3"/></g><g transform="translate(-46,-6) scale(1,1)"><path fill="none" stroke="#000000" d="M 533.1568005212797 103.7126015025413 L 541 96 L 530.0003876393616 95.90765328543462" stroke-miterlimit="10"/></g><g transform="translate(-46,-6) scale(1,1)"><g><path fill="none" stroke="none"/><text fill="#000000" stroke="none" font-family="Arial" font-size="13px" font-style="normal" font-weight="normal" text-decoration="none" x="433.5" y="100">«include»</text></g></g><g transform="translate(-46,-6) scale(1,1)"><path fill="none" stroke="#000000" d="M 456 166 L 543 157" stroke-miterlimit="10" stroke-dasharray="3"/></g><g transform="translate(-46,-6) scale(1,1)"><path fill="none" stroke="#000000" d="M 533.3244265193672 162.2329033834838 L 543 157 L 532.4581149122205 153.85855784773128" stroke-miterlimit="10"/></g><g transform="translate(-46,-6) scale(1,1)"><g><path fill="none" stroke="none"/><text fill="#000000" stroke="none" font-family="Arial" font-size="13px" font-style="normal" font-weight="normal" text-decoration="none" x="468.5" y="136">«include»</text></g></g><g transform="translate(-46,-6) scale(1,1)"><path fill="#C0C0C0" stroke="none" d="M 551 242.5 C 551 222.8938896 590.3989376 207 639 207 C 687.6010624 207 727 222.8938896 727 242.5 C 727 262.1061104 687.6010624 278 639 278 C 590.3989376 278 551 262.1061104 551 242.5 Z" opacity="0.2"/></g><g transform="translate(-46,-6) scale(1,1)"><path fill="#ffd8ff" stroke="none" d="M 544 235.5 C 544 215.8938896 583.3989376 200 632 200 C 680.6010624 200 720 215.8938896 720 235.5 C 720 255.1061104 680.6010624 271 632 271 C 583.3989376 271 544 255.1061104 544 235.5 Z"/></g><g transform="translate(-46,-6) scale(1,1)"><path fill="none" stroke="#000000" d="M 544 235.5 C 544 215.8938896 583.3989376 200 632 200 C 680.6010624 200 720 215.8938896 720 235.5 C 720 255.1061104 680.6010624 271 632 271 C 583.3989376 271 544 255.1061104 544 235.5 Z" stroke-miterlimit="10"/></g><g transform="translate(-46,-6) scale(1,1)"><g><path fill="none" stroke="none"/><text fill="#000000" stroke="none" font-family="Arial" font-size="13px" font-style="normal" font-weight="bold" text-decoration="none" x="585.766845703125" y="228">Define value of</text><text fill="#000000" stroke="none" font-family="Arial" font-size="13px" font-style="normal" font-weight="bold" text-decoration="none" x="590.457763671875" y="241">the exchange</text><text fill="#000000" stroke="none" font-family="Arial" font-size="13px" font-style="normal" font-weight="bold" text-decoration="none" x="609.61181640625" y="254">[RF-24]</text></g></g><g transform="translate(-46,-6) scale(1,1)"><path fill="#C0C0C0" stroke="none" d="M 519 330.5 C 519 310.8938896 569.1441024 295 631 295 C 692.8558976 295 743 310.8938896 743 330.5 C 743 350.1061104 692.8558976 366 631 366 C 569.1441024 366 519 350.1061104 519 330.5 Z" opacity="0.2"/></g><g transform="translate(-46,-6) scale(1,1)"><path fill="#ffd8ff" stroke="none" d="M 512 323.5 C 512 303.8938896 562.1441024 288 624 288 C 685.8558976 288 736 303.8938896 736 323.5 C 736 343.1061104 685.8558976 359 624 359 C 562.1441024 359 512 343.1061104 512 323.5 Z"/></g><g transform="translate(-46,-6) scale(1,1)"><path fill="none" stroke="#000000" d="M 512 323.5 C 512 303.8938896 562.1441024 288 624 288 C 685.8558976 288 736 303.8938896 736 323.5 C 736 343.1061104 685.8558976 359 624 359 C 562.1441024 359 512 343.1061104 512 323.5 Z" stroke-miterlimit="10"/></g><g transform="translate(-46,-6) scale(1,1)"><g><path fill="none" stroke="none"/><text fill="#000000" stroke="none" font-family="Arial" font-size="13px" font-style="normal" font-weight="bold" text-decoration="none" x="559.35546875" y="316">Define description of</text><text fill="#000000" stroke="none" font-family="Arial" font-size="13px" font-style="normal" font-weight="bold" text-decoration="none" x="571.25732421875" y="329">money exchange</text><text fill="#000000" stroke="none" font-family="Arial" font-size="13px" font-style="normal" font-weight="bold" text-decoration="none" x="601.61181640625" y="342">[RF-25]</text></g></g><g transform="translate(-46,-6) scale(1,1)"><path fill="none" stroke="#000000" d="M 456 201 L 543 218" stroke-miterlimit="10" stroke-dasharray="3"/></g><g transform="translate(-46,-6) scale(1,1)"><path fill="none" stroke="#000000" d="M 532.2186742169558 220.18243312838374 L 543 218 L 533.8332381640618 211.91966469319442" stroke-miterlimit="10"/></g><g transform="translate(-46,-6) scale(1,1)"><g><path fill="none" stroke="none"/><text fill="#000000" stroke="none" font-family="Arial" font-size="13px" font-style="normal" font-weight="normal" text-decoration="none" x="477.5" y="184">«include»</text></g></g><g transform="translate(-46,-6) scale(1,1)"><path fill="none" stroke="#000000" d="M 553 287 L 392 205" stroke-miterlimit="10" stroke-dasharray="3"/></g><g transform="translate(-46,-6) scale(1,1)"><path fill="none" stroke="#000000" d="M 402.9662335132267 205.86123314693705 L 392 205 L 399.145314282896 213.3632818796596" stroke-miterlimit="10"/></g><g transform="translate(-46,-6) scale(1,1)"><g><path fill="none" stroke="none"/><text fill="#000000" stroke="none" font-family="Arial" font-size="13px" font-style="normal" font-weight="normal" text-decoration="none" x="431.5" y="277">«extend»</text></g></g></g></svg>