<svg xmlns="http://www.w3.org/2000/svg" xmlns:xlink="http://www.w3.org/1999/xlink" version="1.1" width="884" height="508"><defs/><g><g transform="translate(-14,-14) scale(1,1)"><rect fill="#C0C0C0" stroke="none" x="183" y="31" width="712" height="488" opacity="0.2"/></g><g transform="translate(-14,-14) scale(1,1)"><rect fill="#ffffff" stroke="none" x="176" y="24" width="712" height="488"/></g><g transform="translate(-14,-14) scale(1,1)"><path fill="none" stroke="#000000" d="M 176 24 L 888 24 L 888 512 L 176 512 L 176 24 Z Z" stroke-miterlimit="10"/></g><g transform="translate(-14,-14) scale(1,1)"><g><path fill="none" stroke="none"/><text fill="#000000" stroke="none" font-family="Arial" font-size="13px" font-style="normal" font-weight="bold" text-decoration="none" x="508.87548828125" y="42">System</text></g></g><g transform="translate(-14,-14) scale(1,1)"><path fill="#ffffff" stroke="none" d="M 69.67521946022727 241.68 C 69.67521946022727 236.886167936 73.56106178517273 233 78.3544921875 233 C 83.14792258982727 233 87.03376491477273 236.886167936 87.03376491477273 241.68 C 87.03376491477273 246.47383206400002 83.14792258982727 250.36 78.3544921875 250.36 C 73.56106178517273 250.36 69.67521946022727 246.47383206400002 69.67521946022727 241.68 Z"/></g><g transform="translate(-14,-14) scale(1,1)"><path fill="none" stroke="#000000" d="M 69.67521946022727 241.68 C 69.67521946022727 236.886167936 73.56106178517273 233 78.3544921875 233 C 83.14792258982727 233 87.03376491477273 236.886167936 87.03376491477273 241.68 C 87.03376491477273 246.47383206400002 83.14792258982727 250.36 78.3544921875 250.36 C 73.56106178517273 250.36 69.67521946022727 246.47383206400002 69.67521946022727 241.68 Z" stroke-miterlimit="10"/></g><g transform="translate(-14,-14) scale(1,1)"><path fill="none" stroke="#000000" d="M 78.3544921875 250.36 L 78.3544921875 267.64" stroke-miterlimit="10"/></g><g transform="translate(-14,-14) scale(1,1)"><path fill="none" stroke="#000000" d="M 69.16467400568182 256.84 L 87.54431036931818 256.84" stroke-miterlimit="10"/></g><g transform="translate(-14,-14) scale(1,1)"><path fill="none" stroke="#000000" d="M 78.3544921875 267.64 L 65.59085582386363 285" stroke-miterlimit="10"/></g><g transform="translate(-14,-14) scale(1,1)"><path fill="none" stroke="#000000" d="M 78.3544921875 267.64 L 91.11812855113637 285" stroke-miterlimit="10"/></g><g transform="translate(-14,-14) scale(1,1)"><g><path fill="none" stroke="none"/><text fill="#000000" stroke="none" font-family="Arial" font-size="13px" font-style="normal" font-weight="bold" text-decoration="none" x="28.5" y="304">Registered User</text></g></g><g transform="translate(-14,-14) scale(1,1)"><path fill="#C0C0C0" stroke="none" d="M 399 273 C 399 258.6405952 451.8303936 247 517 247 C 582.1696064 247 635 258.6405952 635 273 C 635 287.3594048 582.1696064 299 517 299 C 451.8303936 299 399 287.3594048 399 273 Z" opacity="0.2"/></g><g transform="translate(-14,-14) scale(1,1)"><path fill="#ebffd8" stroke="none" d="M 392 266 C 392 251.6405952 444.8303936 240 510 240 C 575.1696064 240 628 251.6405952 628 266 C 628 280.3594048 575.1696064 292 510 292 C 444.8303936 292 392 280.3594048 392 266 Z"/></g><g transform="translate(-14,-14) scale(1,1)"><path fill="none" stroke="#000000" d="M 392 266 C 392 251.6405952 444.8303936 240 510 240 C 575.1696064 240 628 251.6405952 628 266 C 628 280.3594048 575.1696064 292 510 292 C 444.8303936 292 392 280.3594048 392 266 Z" stroke-miterlimit="10"/></g><g transform="translate(-14,-14) scale(1,1)"><g><path fill="none" stroke="none"/><text fill="#000000" stroke="none" font-family="Arial" font-size="13px" font-style="normal" font-weight="bold" text-decoration="none" x="451.11279296875" y="265">Access home page</text><text fill="#000000" stroke="none" font-family="Arial" font-size="13px" font-style="normal" font-weight="bold" text-decoration="none" x="487.61181640625" y="278">[FR-19]</text></g></g><g transform="translate(-14,-14) scale(1,1)"><path fill="#C0C0C0" stroke="none" d="M 215 138.5 C 215 118.8938896 263.3532416 103 323 103 C 382.6467584 103 431 118.8938896 431 138.5 C 431 158.1061104 382.6467584 174 323 174 C 263.3532416 174 215 158.1061104 215 138.5 Z" opacity="0.2"/></g><g transform="translate(-14,-14) scale(1,1)"><path fill="#ebffd8" stroke="none" d="M 208 131.5 C 208 111.8938896 256.3532416 96 316 96 C 375.6467584 96 424 111.8938896 424 131.5 C 424 151.1061104 375.6467584 167 316 167 C 256.3532416 167 208 151.1061104 208 131.5 Z"/></g><g transform="translate(-14,-14) scale(1,1)"><path fill="none" stroke="#000000" d="M 208 131.5 C 208 111.8938896 256.3532416 96 316 96 C 375.6467584 96 424 111.8938896 424 131.5 C 424 151.1061104 375.6467584 167 316 167 C 256.3532416 167 208 151.1061104 208 131.5 Z" stroke-miterlimit="10"/></g><g transform="translate(-14,-14) scale(1,1)"><g><path fill="none" stroke="none"/><text fill="#000000" stroke="none" font-family="Arial" font-size="13px" font-style="normal" font-weight="bold" text-decoration="none" x="285.2900390625" y="124">Access to</text><text fill="#000000" stroke="none" font-family="Arial" font-size="13px" font-style="normal" font-weight="bold" text-decoration="none" x="256.4208984375" y="137">Configuration page</text><text fill="#000000" stroke="none" font-family="Arial" font-size="13px" font-style="normal" font-weight="bold" text-decoration="none" x="293.61181640625" y="150">[FR-20]</text></g></g><g transform="translate(-14,-14) scale(1,1)"><path fill="none" stroke="#000000" d="M 134 270 L 391 267" stroke-miterlimit="10"/></g><g transform="translate(-14,-14) scale(1,1)"><path fill="#C0C0C0" stroke="none" d="M 231 385 C 231 370.6405952 272.1897984 359 323 359 C 373.8102016 359 415 370.6405952 415 385 C 415 399.3594048 373.8102016 411 323 411 C 272.1897984 411 231 399.3594048 231 385 Z" opacity="0.2"/></g><g transform="translate(-14,-14) scale(1,1)"><path fill="#ebffd8" stroke="none" d="M 224 378 C 224 363.6405952 265.1897984 352 316 352 C 366.8102016 352 408 363.6405952 408 378 C 408 392.3594048 366.8102016 404 316 404 C 265.1897984 404 224 392.3594048 224 378 Z"/></g><g transform="translate(-14,-14) scale(1,1)"><path fill="none" stroke="#000000" d="M 224 378 C 224 363.6405952 265.1897984 352 316 352 C 366.8102016 352 408 363.6405952 408 378 C 408 392.3594048 366.8102016 404 316 404 C 265.1897984 404 224 392.3594048 224 378 Z" stroke-miterlimit="10"/></g><g transform="translate(-14,-14) scale(1,1)"><g><path fill="none" stroke="none"/><text fill="#000000" stroke="none" font-family="Arial" font-size="13px" font-style="normal" font-weight="bold" text-decoration="none" x="269.398681640625" y="377">Access to Help</text><text fill="#000000" stroke="none" font-family="Arial" font-size="13px" font-style="normal" font-weight="bold" text-decoration="none" x="276.635009765625" y="390">page [FR-15]</text></g></g><g transform="translate(-14,-14) scale(1,1)"><path fill="none" stroke="#000000" d="M 134 296 L 256 351" stroke-miterlimit="10"/></g><g transform="translate(-14,-14) scale(1,1)"><path fill="#C0C0C0" stroke="none" d="M 447 121 C 447 106.6405952 491.77152 95 547 95 C 602.22848 95 647 106.6405952 647 121 C 647 135.3594048 602.22848 147 547 147 C 491.77152 147 447 135.3594048 447 121 Z" opacity="0.2"/></g><g transform="translate(-14,-14) scale(1,1)"><path fill="#ffd8ff" stroke="none" d="M 440 114 C 440 99.6405952 484.77152 88 540 88 C 595.22848 88 640 99.6405952 640 114 C 640 128.3594048 595.22848 140 540 140 C 484.77152 140 440 128.3594048 440 114 Z"/></g><g transform="translate(-14,-14) scale(1,1)"><path fill="none" stroke="#000000" d="M 440 114 C 440 99.6405952 484.77152 88 540 88 C 595.22848 88 640 99.6405952 640 114 C 640 128.3594048 595.22848 140 540 140 C 484.77152 140 440 128.3594048 440 114 Z" stroke-miterlimit="10"/></g><g transform="translate(-14,-14) scale(1,1)"><g><path fill="none" stroke="none"/><text fill="#000000" stroke="none" font-family="Arial" font-size="13px" font-style="normal" font-weight="bold" text-decoration="none" x="500.628662109375" y="113">Enter money</text><text fill="#000000" stroke="none" font-family="Arial" font-size="13px" font-style="normal" font-weight="bold" text-decoration="none" x="489.4345703125" y="126">exchange [FR-6]</text></g></g><g transform="translate(-14,-14) scale(1,1)"><path fill="none" stroke="#000000" d="M 535 141 L 515 239" stroke-miterlimit="10" stroke-dasharray="3"/></g><g transform="translate(-14,-14) scale(1,1)"><path fill="none" stroke="#000000" d="M 512.9076260035894 228.20083470544392 L 515 239 L 521.1566311692947 229.88430514742458" stroke-miterlimit="10"/></g><g transform="translate(-14,-14) scale(1,1)"><g><path fill="none" stroke="none"/><text fill="#000000" stroke="none" font-family="Arial" font-size="13px" font-style="normal" font-weight="normal" text-decoration="none" x="536.5" y="183">«extend»</text></g></g><g transform="translate(-14,-14) scale(1,1)"><path fill="none" stroke="#000000" d="M 363 351 L 463 293" stroke-miterlimit="10" stroke-dasharray="3"/></g><g transform="translate(-14,-14) scale(1,1)"><path fill="none" stroke="#000000" d="M 456.32096048923734 301.7401619672448 L 463 293 L 452.0969780744193 294.4574336658344" stroke-miterlimit="10"/></g><g transform="translate(-14,-14) scale(1,1)"><g><path fill="none" stroke="none"/><text fill="#000000" stroke="none" font-family="Arial" font-size="13px" font-style="normal" font-weight="normal" text-decoration="none" x="370.5" y="301">«extend»</text></g></g><g transform="translate(-14,-14) scale(1,1)"><path fill="none" stroke="#000000" d="M 369 168 L 471 239" stroke-miterlimit="10" stroke-dasharray="3"/></g><g transform="translate(-14,-14) scale(1,1)"><path fill="none" stroke="#000000" d="M 460.2541759899057 236.6489861029588 L 471 239 L 465.0639728422868 229.73913710376343" stroke-miterlimit="10"/></g><g transform="translate(-14,-14) scale(1,1)"><g><path fill="none" stroke="none"/><text fill="#000000" stroke="none" font-family="Arial" font-size="13px" font-style="normal" font-weight="normal" text-decoration="none" x="410.5" y="183">«extend»</text></g></g><g transform="translate(-14,-14) scale(1,1)"><path fill="#C0C0C0" stroke="none" d="M 647 193 C 647 178.6405952 695.3532416 167 755 167 C 814.6467584 167 863 178.6405952 863 193 C 863 207.3594048 814.6467584 219 755 219 C 695.3532416 219 647 207.3594048 647 193 Z" opacity="0.2"/></g><g transform="translate(-14,-14) scale(1,1)"><path fill="#ffd8ff" stroke="none" d="M 640 186 C 640 171.6405952 688.3532416 160 748 160 C 807.6467584 160 856 171.6405952 856 186 C 856 200.3594048 807.6467584 212 748 212 C 688.3532416 212 640 200.3594048 640 186 Z"/></g><g transform="translate(-14,-14) scale(1,1)"><path fill="none" stroke="#000000" d="M 640 186 C 640 171.6405952 688.3532416 160 748 160 C 807.6467584 160 856 171.6405952 856 186 C 856 200.3594048 807.6467584 212 748 212 C 688.3532416 212 640 200.3594048 640 186 Z" stroke-miterlimit="10"/></g><g transform="translate(-14,-14) scale(1,1)"><g><path fill="none" stroke="none"/><text fill="#000000" stroke="none" font-family="Arial" font-size="13px" font-style="normal" font-weight="bold" text-decoration="none" x="679.372314453125" y="185">Read record of money</text><text fill="#000000" stroke="none" font-family="Arial" font-size="13px" font-style="normal" font-weight="bold" text-decoration="none" x="697.4345703125" y="198">exchange [FR-9]</text></g></g><g transform="translate(-14,-14) scale(1,1)"><path fill="none" stroke="#000000" d="M 668 213 L 590 239" stroke-miterlimit="10" stroke-dasharray="3"/></g><g transform="translate(-14,-14) scale(1,1)"><path fill="none" stroke="#000000" d="M 598.3099935049528 231.79278084503858 L 590 239 L 600.9723262969391 239.77977922099748" stroke-miterlimit="10"/></g><g transform="translate(-14,-14) scale(1,1)"><g><path fill="none" stroke="none"/><text fill="#000000" stroke="none" font-family="Arial" font-size="13px" font-style="normal" font-weight="normal" text-decoration="none" x="584.5" y="216">«extend»</text></g></g><g transform="translate(-14,-14) scale(1,1)"><path fill="#C0C0C0" stroke="none" d="M 583 370.5 C 583 350.8938896 649.2618496 335 731 335 C 812.7381504 335 879 350.8938896 879 370.5 C 879 390.1061104 812.7381504 406 731 406 C 649.2618496 406 583 390.1061104 583 370.5 Z" opacity="0.2"/></g><g transform="translate(-14,-14) scale(1,1)"><path fill="#ffd8ff" stroke="none" d="M 576 363.5 C 576 343.8938896 642.2618496 328 724 328 C 805.7381504 328 872 343.8938896 872 363.5 C 872 383.1061104 805.7381504 399 724 399 C 642.2618496 399 576 383.1061104 576 363.5 Z"/></g><g transform="translate(-14,-14) scale(1,1)"><path fill="none" stroke="#000000" d="M 576 363.5 C 576 343.8938896 642.2618496 328 724 328 C 805.7381504 328 872 343.8938896 872 363.5 C 872 383.1061104 805.7381504 399 724 399 C 642.2618496 399 576 383.1061104 576 363.5 Z" stroke-miterlimit="10"/></g><g transform="translate(-14,-14) scale(1,1)"><g><path fill="none" stroke="none"/><text fill="#000000" stroke="none" font-family="Arial" font-size="13px" font-style="normal" font-weight="bold" text-decoration="none" x="657.898681640625" y="356">Read summary of the</text><text fill="#000000" stroke="none" font-family="Arial" font-size="13px" font-style="normal" font-weight="bold" text-decoration="none" x="635.869140625" y="369">introduced money exchange</text><text fill="#000000" stroke="none" font-family="Arial" font-size="13px" font-style="normal" font-weight="bold" text-decoration="none" x="701.61181640625" y="382">[FR-12]</text></g></g><g transform="translate(-14,-14) scale(1,1)"><path fill="#C0C0C0" stroke="none" d="M 407 433 C 407 418.6405952 444.6080768 407 491 407 C 537.3919232 407 575 418.6405952 575 433 C 575 447.3594048 537.3919232 459 491 459 C 444.6080768 459 407 447.3594048 407 433 Z" opacity="0.2"/></g><g transform="translate(-14,-14) scale(1,1)"><path fill="#ffd8ff" stroke="none" d="M 400 426 C 400 411.6405952 437.6080768 400 484 400 C 530.3919232 400 568 411.6405952 568 426 C 568 440.3594048 530.3919232 452 484 452 C 437.6080768 452 400 440.3594048 400 426 Z"/></g><g transform="translate(-14,-14) scale(1,1)"><path fill="none" stroke="#000000" d="M 400 426 C 400 411.6405952 437.6080768 400 484 400 C 530.3919232 400 568 411.6405952 568 426 C 568 440.3594048 530.3919232 452 484 452 C 437.6080768 452 400 440.3594048 400 426 Z" stroke-miterlimit="10"/></g><g transform="translate(-14,-14) scale(1,1)"><g><path fill="none" stroke="none"/><text fill="#000000" stroke="none" font-family="Arial" font-size="13px" font-style="normal" font-weight="bold" text-decoration="none" x="439.92822265625" y="425">Read mensual</text><text fill="#000000" stroke="none" font-family="Arial" font-size="13px" font-style="normal" font-weight="bold" text-decoration="none" x="441.0263671875" y="438">report [FR-13]</text></g></g><g transform="translate(-14,-14) scale(1,1)"><path fill="none" stroke="#000000" d="M 488 399 L 506 293" stroke-miterlimit="10" stroke-dasharray="3"/></g><g transform="translate(-14,-14) scale(1,1)"><path fill="none" stroke="#000000" d="M 508.4487258402823 303.72397975376373 L 506 293 L 500.14851184173676 302.3145094521239" stroke-miterlimit="10"/></g><g transform="translate(-14,-14) scale(1,1)"><g><path fill="none" stroke="none"/><text fill="#000000" stroke="none" font-family="Arial" font-size="13px" font-style="normal" font-weight="normal" text-decoration="none" x="440.5" y="345">«extend»</text></g></g><g transform="translate(-14,-14) scale(1,1)"><path fill="none" stroke="#000000" d="M 570 293 L 645 327" stroke-miterlimit="10" stroke-dasharray="3"/></g><g transform="translate(-14,-14) scale(1,1)"><path fill="none" stroke="#000000" d="M 634.0059611831359 326.63790817009294 L 645 327 L 637.4820781883068 318.97000301162774" stroke-miterlimit="10"/></g><g transform="translate(-14,-14) scale(1,1)"><g><path fill="none" stroke="none"/><text fill="#000000" stroke="none" font-family="Arial" font-size="13px" font-style="normal" font-weight="normal" text-decoration="none" x="629.5" y="308">«include»</text></g></g><g transform="translate(-14,-14) scale(1,1)"><path fill="none" stroke="#000000" d="M 134 238 L 253 168" stroke-miterlimit="10"/></g></g></svg>